<svg version="1.0" xmlns="http://www.w3.org/2000/svg" width="1000" height="750" viewBox="0 0 10000 7500"><g fill="#5a5a5a"><path d="M4863 7403c-15-20-40-48-54-62-55-54-99-124-119-187-11-37-20-74-19-83 0-9 8 11 18 44 20 68 42 115 78 163 32 42 37 37 18-18-8-23-15-54-14-69 1-17 4-11 10 19 11 57 50 136 89 180l31 35-4-81c-2-45 2-115 9-155 12-74 12-74 10 71-1 80-5 151-9 158-17 27 10 10 36-23 25-31 41-61 85-155l12-25-6 25c-19 79-97 200-130 200-7 0-26-16-41-37z"/><path d="M5038 7119c-8-77-36-157-78-219l-30-45-1 40-1 40-16-45-17-45-6 40-6 40-2-35-2-35-35 55c-35 56-63 133-65 179 0 14-3 20-6 13-8-20 18-135 34-150 7-7 13-32 14-55 1-31 3-36 7-19 7 22 8 21 34-11l26-34-21-34c-22-34-22-34-25-9-7 47-22 45-22-3 0-26 4-47 8-47 13 0 37 30 65 78 16 28 27 40 32 32 9-14 32 17 75 100 31 61 54 158 48 205-2 19-6 5-10-36z"/><path d="M4893 7120c0-30 2-43 4-27 2 15 2 39 0 55-2 15-4 2-4-28zM4911 7028c0-44 3-57 9-43 12 28 12 93 0 100-6 4-10-17-9-57zM4656 7018c-10-15-26-53-36-84-17-56-17-56-33-34-21 30-32 20-56-53-27-85-37-142-22-133 6 4 11 18 11 31 0 14 10 54 21 90 18 53 24 63 35 54 8-6 18-26 22-43l9-31 8 45c4 25 16 69 28 99 18 51 21 53 34 35 20-27 72-130 90-178 8-23 18-75 23-116l7-75 2 72c1 81-14 130-78 243-22 38-41 77-43 87-3 15-6 14-22-9zM4884 7025c-3-8-2-32 4-52l10-38 1 53c1 52-5 65-15 37zM5105 6965c-27-48-40-63-46-53-11 16-13 13-73-97-56-101-91-215-67-215 4 0 11 21 14 46 5 49 100 254 117 254 13 0 13 1-15-84-14-41-25-85-24-98 0-13 7 2 14 33 25 102 118 281 129 249 28-74 43-129 39-134-4-3-1-6 5-6 15 0 16-4-9 76-32 106-40 108-84 29z"/><path d="M4020 6926c0-20 5-36 11-36 7 0 8 11 4 31-7 29-6 31 16 24 125-39 305-142 427-244 186-155 331-408 369-646 9-53 16-42 9 13-11 86-54 209-107 310-27 51-49 104-49 118 0 26 0 26 49-15 57-48 75-53 61-15-6 14-10 36-10 50 0 13-4 24-10 24-12 0-12-7-1-48 5-17 7-32 5-32-3 0-23 16-44 36-59 55-110 136-131 206-11 42-18 54-18 36-1-38 32-122 64-164 17-22 25-44 23-60-3-25-4-25-37 21-54 75-175 189-273 256-91 62-274 155-328 166-29 5-30 4-30-31z"/><path d="M5663 6911c-228-98-326-175-559-434-77-85-177-260-213-369-14-46-29-87-33-93-3-5-3-28 1-50l7-40 6 52c14 110 110 333 179 413l30 35-25-52c-65-132-124-323-114-370 2-10 10 11 17 47 32 166 102 335 186 449 124 169 322 320 531 407 102 42 108 42 101 4-4-17-2-30 3-30 6 0 10 18 10 40s-3 40-7 40c-5 0-59-22-120-49zM4793 6880c0-30 2-43 4-27 2 15 2 39 0 55-2 15-4 2-4-28z"/><path d="M4035 6853c5-38 8-37-38-18-20 8-46 15-57 15s-20-7-20-15c0-16 16-21 22-6 4 13 108-28 108-43 0-26 80-175 125-231 59-75 98-111 256-235 69-54 152-127 183-162 66-73 136-184 136-217 0-13 4-19 10-16 7 4 9-2 7-17-2-12-2-16 1-8 2 8 17-19 33-60 23-59 29-91 29-152 0-43 4-78 9-78s7-10 3-22c-3-14-2-19 6-14 7 4 12 15 12 24 1 9 16 55 35 102 33 83 34 84 36 45 1-22 1-44 0-48-1-5 3-7 9-5s24 39 39 83c39 109 72 182 116 251 34 56 109 134 128 134 4 0 7 8 5 17-3 16 136 143 156 143 15 0-15-29-86-81-38-28-67-54-64-56 9-9 156 113 260 215 153 150 232 265 270 391 24 83 18 96-8 16-58-183-156-302-406-496-201-156-279-261-370-501l-39-103-2 115c-2 105-3 110-9 50-9-77-79-266-80-212 0 17 5 32 10 32 6 0 10 12 10 28 0 17-3 22-8 15-5-8-17 14-31 59-33 102-122 272-180 344-28 34-105 106-173 160-296 235-366 324-432 539-10 32-14 38-11 18zm1400-503c-16-16-33-30-39-30-9 0 53 59 63 60 3 0-8-13-24-30z"/><path d="M5202 6830c0-14 2-19 5-12 2 6 2 18 0 25-3 6-5 1-5-13zM2645 6808c67-334 392-614 885-761 148-44 170-49 170-39 0 5-24 19-52 33-138 62-427 234-415 246 3 2 49-18 103-46 112-56 206-94 344-139 132-44 352-103 358-97 11 11-20 113-58 190-65 136-204 263-343 318-70 26-186 57-217 56-14 0 4-7 40-15 280-60 473-225 555-472 9-29 14-56 11-59-7-7-119 20-241 57-191 59-434 159-548 226-32 19-63 32-68 28-5-3-8-1-7 4 3 9-135 122-149 122-16 0 79-87 167-154 112-85 242-166 366-230 101-52 100-55-8-22-412 128-717 351-833 609-26 58-57 157-49 157 3 0 37-18 76-41 134-79 348-157 516-190 34-6 65-9 69-5 3 3-3 6-13 6-26 0-159 34-259 67-109 35-240 94-320 143-37 22-71 40-77 40s-7-14-3-32zm581-516c-4-3-14 2-24 12-16 18-16 18 6 6 13-6 21-14 18-18zM7139 6820c-43-32-219-116-309-148-107-37-223-69-320-86-41-8-61-14-45-15 42-1 232 43 345 81 116 38 215 83 301 136l66 40-9-46c-6-26-26-81-45-122-119-250-373-445-754-577-169-59-185-60-72-2 122 63 359 221 356 237-2 6 3 9 10 7 12-5 172 134 163 142-2 3-34-19-69-49-130-107-328-206-602-300-140-49-342-104-350-96-9 9 27 113 63 183 44 84 160 204 245 254 68 40 159 74 254 96 53 12 58 14 22 10-26-2-89-18-142-35-213-68-373-227-441-437-31-95-29-96 104-62 194 51 412 128 551 195 72 35 134 62 136 60 9-9-174-120-325-199-84-43-151-81-148-84 6-6 177 41 283 78 294 104 559 292 677 482 48 77 89 177 99 240 7 43-4 47-44 17zm-509-515c-7-8-18-15-24-15s-2 7 8 15c25 19 32 19 16 0zM3935 6765c10-98 62-214 141-316 42-53 147-151 219-204 22-17 45-34 51-40 6-5 26-21 44-35 19-14 61-51 94-83l60-57-64-31c-75-35-161-64-250-83-36-8-54-15-40-15 43-1 171 35 257 73 102 45 108 45 98 4-15-70-14-81 3-34l18 49 21-29c41-57 113-208 144-301 20-62 35-91 41-85s7 20 3 32-9 19-12 16-19 31-34 75c-82 234-162 342-388 524-265 212-339 309-392 515-17 67-18 69-14 25zM5200 6743c-1-13-3-26-5-30-1-5-5-21-10-38-5-16-20-48-34-70-27-43-129-151-135-144-3 2 0 25 6 50 7 31 8 65 1 105l-10 59v-80c1-147-7-175-63-215l-27-19 3 72 3 72-9-60c-4-33-13-72-19-87-6-16-7-28-2-28 16 0 98 69 126 106 16 22 37 45 46 51 62 45 146 203 136 255l-4 23-3-22zM4780 6606c0-8 5-18 10-21 6-3 10 3 10 14 0 12-4 21-10 21-5 0-10-6-10-14z"/><path d="M3343 6573c9-2 25-2 35 0 9 3 1 5-18 5s-27-2-17-5zM4917 6553c-11-10-8-43 3-43 6 0 10 11 10 25 0 26-2 29-13 18zM1450 6353c0-13 3-14 11-6 16 16 96-16 168-65 106-72 207-227 251-384 11-40 20-74 20-76 0-3-19 15-42 38-28 28-78 59-143 90-78 37-111 59-151 101-53 56-97 149-96 201 0 15-4 30-9 33-22 14 4-103 39-171 26-52 107-125 169-154 118-54 140-68 190-118 61-60 64-55 32 58-28 101-87 223-139 288-50 62-150 136-220 163-62 23-80 24-80 2zM8300 6351c-90-35-206-133-264-224-55-86-116-253-116-318 0-19 9-14 63 38 47 45 88 73 158 105 73 35 104 56 141 97 45 50 88 139 88 183 0 30-8 19-15-21-18-102-103-195-235-258-61-29-112-61-143-91-48-47-48-47-42-17 46 210 179 404 326 473 106 50 106 50 106-3 0-25 3-48 7-52 3-3 6 19 6 50 0 65-5 68-80 38zM2165 6313c-81-41-146-136-159-233-5-42-5-41 12 15 26 84 44 115 96 163 55 51 70 53 50 7-18-44-18-116 1-180 8-27 12-36 10-20-18 103-17 162 4 210 12 26 20 49 19 51-2 1-16-5-33-13zM7635 6314c4-10 16-44 26-74 16-46 19-49 15-19-2 19-9 45-15 57-19 36 5 26 58-23 102-96 126-249 70-448-10-38-11-38-31-21-32 30-88 133-100 185-9 39-8 57 6 103 10 30 16 63 14 73-8 37-40-126-33-167 14-81 113-246 135-224 5 5 17 38 27 74 24 90 24 248 0 317-22 62-79 129-137 162-39 22-43 22-35 5zM2002 6000c0-19 2-27 5-17 2 9 2 25 0 35-3 9-5 1-5-18zM2181 6014c0-11 3-14 6-6 3 7 2 16-1 19-3 4-6-2-5-13zM5265 6020c-3-5 3-10 14-10 10 0 56-16 102-35 97-42 230-78 262-72 20 4 19 4-4 6-43 2-190 47-276 85-91 40-89 40-98 26zM5277 5953c8-28 12-66 9-90-5-42-5-42 32-52 70-18 115-24 109-14-4 6-19 10-34 11s-41 5-58 10c-27 7-30 13-33 53-3 54-22 129-32 129-5 0-1-21 7-47zM2171 5974c-2-32-67-156-95-183l-25-23-15 53c-8 30-18 73-21 97-4 24-9 41-12 38-7-6 26-165 39-189 9-18 11-18 40 9 39 38 101 164 95 195-4 21-4 22-6 3zM3612 5968c7-19 160-106 268-152 122-52 304-101 405-109 68-6 69-5 15 4-143 24-222 44-310 76-100 38-315 141-308 149 3 2 38-4 79-15 77-19 189-36 189-28 0 3-37 10-82 17-46 6-123 24-171 40s-87 24-85 18zM4930 5960c0-11 5-20 10-20 6 0 10 9 10 20s-4 20-10 20c-5 0-10-9-10-20zM6188 5970c-9-6-56-21-105-34-48-14-79-25-67-25 11-1 44 6 73 15 29 8 55 13 58 11 7-7-100-63-214-112-119-52-215-82-315-100-40-7-59-14-43-14 17-1 75 10 130 23 146 36 277 88 399 158 52 31 65 43 55 50-11 8-10 9 4 4 18-6 57 12 57 26 0 11-11 10-32-2zM1475 5925c-67-23-138-124-103-146 18-12 51-11 43 1-3 5-12 7-19 4-27-10-28 18-2 56 29 44 63 70 115 86 20 7 29 12 21 13-8 0-33-6-55-14zM1584 5917c22-7 41-17 43-22 10-33-67-101-124-109-7-1-16-6-20-10-8-9 31-2 70 13 30 12 87 77 87 100 0 20-39 41-73 40-14 0-8-5 17-12zM8213 5918c-13-6-23-18-23-26 0-24 37-76 67-94 28-16 113-37 102-24-4 4-19 9-35 12-43 8-93 42-110 76-18 35-13 43 36 56 28 8 30 10 10 10-14 1-35-4-47-10zM8338 5922c33-10 90-59 107-93 17-32 12-54-11-45-7 3-16 1-19-4-8-13 25-13 44-1 38 24-68 153-123 150-20-1-20-1 2-7zM3270 5905c-71-20-180-71-180-84 0-7 25-11 61-11 37 0 58 4 54 10-3 6-25 10-48 10l-42 1 50 24c85 41 169 58 270 53 113-5 157-24 325-143 69-48 153-101 188-117 71-32 197-64 287-72 42-4 29 0-41 13-183 33-242 59-414 180-63 45-144 96-178 113-58 29-74 32-170 35-74 2-124-2-162-12zM6297 5910c-56-15-112-45-220-122-54-39-135-87-180-108-84-39-262-89-326-91-27-1-30-3-12-6 53-10 242 39 360 93 40 19 117 65 170 102 53 38 121 82 151 98 52 27 61 29 180 29 111-1 132-4 190-27 102-41 106-42 95-31-5 6-44 23-85 38-60 22-96 28-180 31-58 2-122-1-143-6zM4866 5888c-8-32-6-99 4-123 6-13 9 7 9 63 1 84-2 99-13 60zM5905 5900c-42-11-1-11 50-1 34 7 35 9 10 9-16 0-43-4-60-8z"/><path d="M1710 5884c0-8 4-13 8-10 5 3 31-18 58-45 94-97 234-181 376-228 84-28 262-61 278-51 6 4-19 10-57 13-214 20-447 130-586 276-60 63-77 73-77 45zM3998 5893c23-2 59-2 80 0 20 2 1 4-43 4s-61-2-37-4zM4128 5893c6-2 18-2 25 0 6 3 1 5-13 5s-19-2-12-5zM5678 5893c6-2 18-2 25 0 6 3 1 5-13 5s-19-2-12-5zM5758 5893c23-2 59-2 80 0 20 2 1 4-43 4s-61-2-37-4zM8041 5839c-133-144-369-256-588-276-35-3-59-9-52-14 7-4 17-6 23-4s29 6 51 9c152 19 333 86 455 169 25 17 74 58 109 91l64 61-6-52c-17-151-126-269-316-342-81-31-228-60-320-63-54-1-55-2-11-5 103-10 287 30 405 87 149 71 241 194 253 336 2 35 1 63-4 63-5-1-33-28-63-60zM4530 5853c0-16-9-25-36-33-20-7-48-12-61-12s-26-5-30-11c-6-10 38-5 110 14 38 10 44 22 27 49-8 12-10 11-10-7zM4760 5845c1-26 2-28 11-12 8 14 8 22 0 30s-11 3-11-18z"/><path d="M1723 5813c14-126 109-244 249-312 121-58 305-98 408-88 43 3 43 4-11 5-71 2-219 28-284 49-199 64-329 194-352 353-8 56-16 50-10-7zM6675 5833c-68-7-65-23 4-23 44 0 61 4 59 12-5 14-12 16-63 11zM2595 5808c-22-5-68-7-102-3-37 3-63 2-63-4 0-15 110-99 165-126 28-14 73-27 100-30l50-4-45 9c-58 12-154 60-203 100-42 36-42 49 3 42 42-6 160 8 160 19s-12 10-65-3zM2740 5806c82-15 134-37 193-84l37-30-42-16c-24-9-61-20-83-25-23-5-30-9-18-10 29-1 153 39 153 50 0 14-86 78-135 100-29 13-76 23-114 25l-66 4 75-14zM3260 5808c99-22 179-49 201-68l24-19-40-2c-22-1-48-1-57 0-10 1-18-2-18-8 0-9 117-5 129 5 9 8-16 27-68 53-58 30-91 38-171 46l-45 4 45-11zM4125 5811c11-19 185-68 185-52 0 5-21 12-47 16-40 7-44 9-23 14 34 9 11 21-34 18-20-2-36 0-36 5 0 4-12 8-26 8s-23-4-19-9zM5657 5814c-3-3-22-6-41-6-40 0-61-17-24-19 13-1-8-10-47-20-67-18-68-18-20-14 55 6 172 41 180 56 7 10-38 13-48 3z"/><path d="M6537 5814c-2-2-20-6-40-9-67-11-167-62-167-86 0-5 14-9 31-9 70 0 246-33 405-76 219-59 385-94 403-85 7 5-13 11-48 14-93 10-283 59-268 70 8 5 2 7-15 4-16-2-28-1-28 3s-19 10-43 13c-23 3-59 13-80 22-31 13-36 19-27 30 24 29 109 76 159 88 55 13 72 33 19 22-77-15-216-104-201-128 4-7 0-8-12-4-31 13-186 37-234 37h-46l25 20c24 20 111 49 200 68l45 9h-37c-21 0-39-2-41-3zM6893 5813c9-2 25-2 35 0 9 3 1 5-18 5s-27-2-17-5zM6950 5812c0-11 75-23 139-21 45 2 44 2-14 9-33 4-75 10-92 14-19 5-33 4-33-2zM4773 5730c0-47 2-66 4-42 2 23 2 61 0 85-2 23-4 4-4-43z"/><path d="M7143 5795c12-30-120-116-218-142l-50-13 45 5c59 7 155 55 213 106 52 45 58 59 26 59-14 0-19-5-16-15zM4298 5793c17-2 47-2 65 0 17 2 3 4-33 4s-50-2-32-4zM5468 5793c17-2 47-2 65 0 17 2 3 4-33 4s-50-2-32-4zM1438 5773c7-3 16-2 19 1 4 3-2 6-13 5-11 0-14-3-6-6zM8378 5773c7-3 16-2 19 1 4 3-2 6-13 5-11 0-14-3-6-6zM4328 5753c7-3 16-2 19 1 4 3-2 6-13 5-11 0-14-3-6-6zM4360 5750c0-5 11-10 25-10s25 5 25 10c0 6-11 10-25 10s-25-4-25-10zM4510 5749c0-8 15-10 49-5 50 7 81 1 81-15 0-5-17-9-37-10-21 0-32-3-25-6 18-7 102 6 102 16 0 4-11 13-25 19-34 16-145 16-145 1zM5173 5748c-13-6-23-15-23-19 0-10 84-23 102-16 7 3-4 6-24 6-20 1-39 5-42 10-10 15 26 22 81 15 36-4 53-3 53 5 0 14-117 14-147-1zM5420 5750c0-5 11-10 25-10s25 5 25 10c0 6-11 10-25 10s-25-4-25-10zM3285 5703c-11-3-130-34-265-69-134-35-273-67-308-70-37-4-58-10-51-15 8-4 50 1 94 10 67 14 478 114 580 141l30 8h-30c-16 0-39-3-50-5zM4387 5703c18-2 50-2 70 0 21 2 7 4-32 4-38 0-55-2-38-4zM4523 5703c9-2 23-2 30 0 6 3-1 5-18 5-16 0-22-2-12-5zM5283 5703c9-2 23-2 30 0 6 3-1 5-18 5-16 0-22-2-12-5zM5367 5703c18-2 50-2 70 0 21 2 7 4-32 4-38 0-55-2-38-4zM5493 5703c9-2 25-2 35 0 9 3 1 5-18 5s-27-2-17-5zM2758 5633c6-2 18-2 25 0 6 3 1 5-13 5s-19-2-12-5zM3470 5580c0-5 11-10 25-10s25 5 25 10c0 6-11 10-25 10s-25-4-25-10zM3588 5583c34-2 88-2 120 0 31 2 3 3-63 3s-92-1-57-3zM3770 5583c0-11 222-54 301-59 55-3 58-2 24 5-22 5-60 11-85 14s-85 15-135 26c-102 23-105 24-105 14zM4480 5580c-26-6-29-8-11-9 38-2 20-10-70-31-76-18-79-20-29-15 65 5 144 30 161 51 13 16 8 16-51 4zM5302 5579c7-22 158-71 158-51 0 5-28 14-62 22-62 13-62 14-28 20l35 7-37 2c-20 0-44 4-54 8-12 4-15 2-12-8zM5970 5573c-36-8-112-23-170-33-92-17-97-19-41-15 79 4 301 47 301 58 0 9-12 8-90-10zM6128 5583c34-2 88-2 120 0 31 2 3 3-63 3s-92-1-57-3zM6310 5580c0-5 21-10 48-9 38 1 42 2 22 9-36 12-70 12-70 0zM3285 5556c-60-13-157-38-214-55-105-33-275-70-334-72-30-2-30-2-5-6 40-6 178 21 368 72 91 24 208 52 260 61s97 18 99 20c11 10-74 1-174-20zM4327 5573c18-2 50-2 70 0 21 2 7 4-32 4-38 0-55-2-38-4zM5478 5573c12-2 30-2 40 0 9 3-1 5-23 4-22 0-30-2-17-4zM6410 5573c0-5 35-14 78-21 42-7 143-30 222-52 184-51 490-107 470-86-3 3-47 10-97 16-102 13-244 44-374 84-129 39-299 72-299 59zM2498 5543c29-2 74-2 100 0s2 3-53 3-76-1-47-3zM7238 5543c29-2 74-2 100 0s2 3-53 3-76-1-47-3zM3470 5515c-83-20-147-51-221-106-110-81-265-140-411-156-33-3-55-10-52-15 4-6 17-8 30-5 13 2 24 0 24-4 0-5 12-9 28-9 24 1 25 2 10 14-15 11-9 14 50 25 94 17 226 69 295 116 100 68 141 91 197 111 69 23 79 25 112 25 15 0 30 5 33 10 8 12-29 10-95-6zM3593 5523c9-2 25-2 35 0 9 3 1 5-18 5s-27-2-17-5zM3659 5516c14-17-29-78-90-128-81-66-234-128-354-144-48-6-59-14-18-14 96 0 308 84 391 155 43 37 102 115 102 134 0 6-10 11-21 11-17 0-19-3-10-14zM4140 5520c0-6 35-10 85-10s85 4 85 10-35 10-85 10-85-4-85-10zM5490 5519c39-11 200-11 200 1 0 7-41 10-112 9-69-1-103-5-88-10zM6140 5519c0-49 126-164 235-216 77-36 211-74 259-72l31 1-30 8c-16 4-65 15-107 24-91 21-219 80-273 127-59 52-97 109-84 125 9 11 7 14-10 14-11 0-21-5-21-11zM6203 5523c9-2 23-2 30 0 6 3-1 5-18 5-16 0-22-2-12-5zM6265 5520c3-5 13-10 21-10s14 5 14 10c0 6-9 10-21 10-11 0-17-4-14-10zM6311 5516c2-3 16-7 29-9 60-12 151-55 237-112 98-66 217-116 328-137 54-10 61-14 47-25-15-11-14-12 11-13 15 0 27 4 27 8 0 5 14 7 30 4 17-2 30 0 30 5 0 6-26 13-57 16-138 15-313 79-403 148-69 53-110 75-177 98-56 19-113 28-102 17zM2578 5413c12-2 32-2 45 0 12 2 2 4-23 4s-35-2-22-4zM2663 5413c9-2 23-2 30 0 6 3-1 5-18 5-16 0-22-2-12-5zM7208 5413c12-2 32-2 45 0 12 2 2 4-23 4s-35-2-22-4zM5828 5383c-37-23-35-34 5-31 29 3 32 0 35-29s0-33-20-34c-22 0-22-1-3-9 40-17 46-12 43 32-2 34-8 45-28 55l-25 13h31c49 0 54-12 54-145 0-81 4-125 12-133 9-9 3-12-31-12-39 0-41 1-27 16 11 11 16 35 16 79 0 71-11 85-67 85-88 0-142-146-97-260 16-39 55-70 86-70 7 0-1 7-18 16-47 23-69 68-69 144 1 76 21 122 65 145 18 9 40 13 55 9 24-6 25-10 25-74 0-59-2-68-20-73-11-3-20-10-20-16 0-7 25-11 65-11 49 0 65 3 65 14 0 8-7 16-15 20-12 4-15 28-15 124 0 79-4 124-12 135-20 25-59 29-90 10zM3940 5375c0-8 9-15 20-15 19 0 20-7 20-195v-195h-35c-28 0-38 5-47 25-6 14-15 25-20 25-10 0 10-42 26-52 6-4 30-8 54-8h42l-2 197-3 197-25 13c-22 11-18 13 45 12 52 0 64-3 48-9-23-9-23-11-23-210v-200h36c42 0 74 15 74 35 0 7 6 16 13 18 8 4 7 6-3 6-8 1-20-9-25-21-7-17-20-24-47-26l-38-3v195c0 189 1 196 20 196 11 0 20 7 20 15 0 12-15 15-75 15s-75-3-75-15zM4465 5335c-22-8-40-15-41-15 0 0-31-43-68-95s-72-95-77-95-9 27-9 60c0 55 2 62 25 72 25 11 34 28 15 28-5 0-10-5-10-11 0-5-4-8-9-4-17 10-31-32-31-94 0-54 2-61 20-61 14 0 36 24 72 77 64 94 101 133 124 133 16 0 16-1 2-12-9-7-44-55-77-107l-61-93 32-22c44-29 57-66 34-101-25-39-59-51-107-38-25 6-39 7-39 0 0-5-18-7-45-3-37 6-45 4-45-8s11-16 50-16c28 0 50 4 50 8 0 5 24 7 53 4 50-4 55-2 80 28 38 44 36 83-7 126l-34 34 58 88c32 48 70 94 84 101 27 15 35 31 14 31-7-1-31-7-53-15zM5563 5242c-26-32-73-90-103-130l-55-72-3 106c-2 92 0 108 15 120 19 14 7 19-15 6-9-7-12-41-10-135l3-127 110 137 110 137 2-65c7-175 7-319 1-319-4 0-14 7-22 16-13 12-16 40-16 142v127l-35-39c-18-22-60-74-92-117-48-64-63-78-86-79-25 0-27 2-17 21 14 25 9 284-5 298-14 13-65 22-65 11 0-6 12-13 28-16 15-4 30-12 34-18 13-19 9-261-4-274-18-18-85-15-92 4-3 9-6 74-6 144 0 112 2 130 17 139 10 5 14 13 10 18-5 4-15-1-23-11-17-24-20-266-4-297 10-17 7-19-24-19-30 0-34 3-29 23 4 19 3 20-7 5-6-10-20-18-30-18-11 0-20-7-20-15 0-13 21-15 133-15l132 1 85 111 85 111 3-116c3-112 4-117 29-137 28-22 74-24 80-3 2 6-6 13-19 15l-23 3-3 193c-1 105-6 192-11 192s-31-26-58-58z"/><path d="M4480 5277c0-9 6-17 14-17 11 0 46-65 46-86 0-3-13-10-30-15-42-15-37-29 9-29h38l38-105c20-58 41-105 45-105s20 35 35 78c76 212 97 260 116 265 18 5 27 27 11 27-24 0-55-60-105-200-30-85-58-148-61-140-43 118-65 184-62 187 2 2 12-19 22-46 10-28 20-49 22-46 2 2-3 25-12 51-9 27-13 51-9 55 11 9 75 30 80 25 4-4-30-95-49-133-6-13-8-26-5-30 10-9 10-9 46 91 24 70 29 91 19 98-10 6-10 8-1 8 7 0 17 10 24 21 9 18 7 25-10 42-18 19-21 19-21 4 0-9 7-17 15-17s15-3 15-7c-1-19-19-31-77-50l-61-21-6 23c-3 13-8 30-12 38-3 9 3 16 15 20 12 3 21 10 21 16 0 15-11 13-34-4-17-13-18-18-6-60 8-29 18-45 29-46 9 0 1-7-18-15-18-8-35-13-38-10-2 2 5 7 16 11 20 6 20 8 4 48-19 50-63 102-63 74zM5004 5274c75-27 106-76 106-166 0-95-54-158-135-157-49 1-49 1-13 9 65 12 109 72 107 142-1 28-3 26-9-13-14-82-37-109-105-119l-43-7-1 143c-2 135-1 143 19 149 45 14 102-25 121-82 6-19 13-32 16-29 11 11-20 77-48 101-23 18-42 25-75 25-55 0-57-6-52-185 3-130 2-135-17-135s-20 6-17 153c3 130 1 155-12 166-10 8-16 9-16 3s5-14 10-17c6-4 10-64 10-147 0-131-1-140-20-145-11-3-20-12-20-19 0-16 85-20 95-5 3 6 17 6 35-1 131-45 240 148 159 282-19 30-87 70-119 69-8 0 3-7 24-15zM5130 5280c0-5 5-10 10-10 6 0 10 5 10 10 0 6-4 10-10 10-5 0-10-4-10-10zM5740 5268c-55-38-74-71-78-143-5-71 17-132 63-175 29-27 119-39 154-21 14 8 21 8 21 1 0-5 7-10 15-10 10 0 15 9 14 28 0 18-3 22-7 12-4-8-18-16-32-18s-43-6-65-8c-80-11-155 73-155 174 0 83 39 141 113 169 24 9 27 12 11 12-12 1-36-9-54-21zM4190 5270c0-5 5-10 10-10 6 0 10-58 10-152 0-103 4-148 10-138 13 20 13 266 0 291-11 20-30 26-30 9zM5160 5271c0-6 4-11 9-11s12-8 14-17c4-15 5-15 6-2 0 9-6 22-14 29-10 9-15 9-15 1zM8938 5273c12-2 30-2 40 0 9 3-1 5-23 4-22 0-30-2-17-4zM8760 5256c-142-32-271-92-388-181-72-55-73-56-113-45-23 6-43 9-46 7-2-3 9-8 26-12 43-9 39-23-14-46-39-17-51-19-81-9-20 7-49 9-66 6-27-5-29-4-17 10 20 25 65 44 106 45 34 2 35 2 8 6-43 7-101-14-124-44-12-14-21-28-21-32 0-3 44-6 98-6 85 0 101 3 130 23 17 13 32 18 32 12s-7-13-15-17c-35-13-59-106-36-142 25-40 82 35 80 106-1 37-2 36-11-13-9-52-41-99-59-89-5 4-9 23-9 44 0 42 28 86 60 96 11 4 18 10 16 14-3 4 15 23 39 41s42 36 40 40c-3 4 3 7 13 6 9 0 16 4 15 9-1 6 6 11 16 11 15 0 15-5-6-46-13-25-23-56-22-70 0-17 5-10 15 24 9 26 17 46 20 43 2-2 0-16-6-31-5-15-10-33-9-39 0-7 9 11 20 40 37 95 130 156 284 185 36 7 65 16 65 20 0 19-187-33-250-70-39-22-80-36-80-25 0 5 112 59 170 81 30 11 88 28 128 38 39 9 72 18 72 20 0 6-19 3-80-10zm-260-140c0-2-8-10-17-17-16-13-17-12-4 4s21 21 21 13zm-37-51c-3-9-8-14-10-11-3 3-2 9 2 15 9 16 15 13 8-4zM8863 5263c9-2 23-2 30 0 6 3-1 5-18 5-16 0-22-2-12-5zM9062 5260c136-22 268-77 367-153 137-106 249-303 285-505 8-43 15-63 15-46 1 17-10 74-23 126-84 331-336 561-641 583l-60 4 57-9zM3120 5230c0-5 9-10 20-10s20 5 20 10c0 6-9 10-20 10s-20-4-20-10zM6670 5228c0-4 60-7 133-7 72 1 125 3 117 5-36 7-250 10-250 2z"/><path d="M8835 5231c-19-5 27-9 130-13 178-6 246-22 365-84 92-48 160-111 217-201 77-121 140-298 144-402 2-32 3-33 6-8 6 41-24 179-58 267-90 235-292 399-534 435-68 11-238 14-270 6zM2953 5223c32-2 81-2 110 0s3 3-58 3c-60 0-84-1-52-3zM4260 5046c0-49 4-65 16-70 28-11 62-6 78 10s21 71 8 90c-8 12-46 34-59 34-4-1 4-7 19-16 33-17 45-56 29-90-9-21-17-25-44-22-31 3-32 4-35 57-2 37 1 57 10 62 10 7 9 9-4 9-15 0-18-10-18-64zM5900 5009c-8-17-27-40-44-50-23-14-26-19-13-19 10 0 31 13 47 29 17 17 31 24 34 17 2-6 5 4 5 22 1 41-13 41-29 1zM8660 4980c-22-22-27-69-8-88 7-7 23-12 35-12 21 0 22 2 12 22-10 18-8 24 7 35 25 18 41 16 64-7 13-13 20-33 20-61 0-82-104-145-197-120-82 21-116 57-149 155-14 40-14 40-9 6 3-19 16-56 30-82 13-27 22-48 20-48-10 0-46 73-59 121-13 46-15 49-15 21-2-85 101-204 162-187 17 5 19 4 7-4-30-21 102-13 145 9 49 25 50 25 31-2-9-12-16-37-16-55 0-38 40-149 75-209 38-65 180-372 209-453 34-94 34-124-1-150-25-17-26-21-13-34 8-8 26-18 40-21 23-6 23-6-3 9l-29 17 21 22c49 52 25 128-152 490-115 237-131 276-132 321 0 67 15 85 71 85 45 0 64-14 45-33-22-22-12-114 20-197 17-44 34-80 39-80s-5 33-21 73c-40 94-47 158-24 193 16 24 16 28 1 42-10 10-33 17-59 17h-42l24 47c17 36 22 56 17 82-9 45-51 96-79 95-20-1-20-1 3-10 36-13 60-59 59-111l-2-43-6 49c-8 54-29 76-72 76-32 0-53-23-46-50 7-26-9-26-23 0-16 30-3 60 33 75 27 12 29 14 10 15-13 0-32-9-43-20zm131-173c-10-9-11-8-5 6 3 10 9 15 12 12s0-11-7-18zM3877 4944c-16-17 0-19 138-19 92 0 144 4 142 10-4 11-269 20-280 9zM3820 4769c-71-14-167-67-223-123-96-96-137-205-137-361 0-242 120-414 320-459 38-9 77-16 87-15s-11 7-46 15c-137 30-234 98-290 204-46 85-61 149-61 256 0 202 96 362 266 441 54 26 69 28 179 28 113 0 124-2 186-31 159-75 249-233 249-434 0-248-129-418-356-465-64-14-65-14-16-9 117 11 232 76 294 163 55 79 79 158 85 281 6 119-9 198-54 288-84 167-286 259-483 221zM6610 4771c-104-19-182-70-212-139-17-38-19-51-9-83 11-37 43-69 68-69 7 0 16 12 19 28 11 44 40 95 71 123 47 45 87 59 159 59 112 0 187-51 201-135 5-34 5-35-26-35-17 0-31-4-31-9s-9-7-19-4c-36 9-208-58-196-77 3-5 0-12-6-16-8-4-9-3-5 4 11 18-3 14-35-9-16-11-27-24-25-28 3-4-11-23-32-42l-37-34 35 39c19 21 28 37 20 34-26-8-109-120-132-178-26-66-36-222-19-299 40-187 198-332 410-376 41-9 78-14 84-12s-26 10-70 19c-201 40-353 170-407 352-8 25-11 46-7 46s13-21 20-47c37-140 169-252 336-288 81-17 175-20 175-5 0 6-31 10-72 10-232 0-411 142-443 350l-6 45 21-42c38-74 119-126 210-138l45-5-50 13c-137 36-215 121-215 232 0 109 62 176 245 265 154 75 204 107 228 148 17 30 17 31-5 35l-23 4 23 2c51 3 15 115-50 159-31 20-55 26-119 30-132 8-206-36-253-150-18-47-25-54-39-46-27 15-49 66-42 98 10 44 69 105 127 130 70 31 212 39 289 17 103-31 166-88 194-179 12-37 14-39 14-15 2 70-78 160-173 196-62 23-172 33-236 22zm289-287c2-2-13-20-34-40-22-21-101-67-184-107-109-53-158-83-193-118l-48-48 26 52c15 28 50 76 79 106 29 31 55 61 57 66 1 6 6 9 10 8 4-2 39 13 78 31 39 19 90 38 113 42 35 6 38 8 22 15-12 5-2 6 25 2 25-3 47-7 49-9zm-436-239c-3-9-8-14-10-11-3 3-2 9 2 15 9 16 15 13 8-4zm-51-127c-8-8-9-4-5 13 4 13 8 18 11 10 2-7-1-18-6-23zm1-94c-3-104-13-108-13-6 0 45 3 82 8 82 4 0 6-34 5-76zM234 4746c-3-8-4-23-1-33 4-14 5-13 6 5 1 22 3 22 146 22 138 0 145-1 145-20 0-11 5-20 11-20s9 12 7 28l-3 27-153 3c-127 2-153 0-158-12zM694 4746c-3-8-4-23-1-33 4-14 5-13 6 5 1 22 3 22 136 22 83 0 135 4 135 10s-52 10-135 10c-109 0-137-3-141-14zM1254 4748c-18-8-21-17-17-47 5-43-18-105-170-460-92-214-106-241-110-210-4 32-4 31-5-8-1-24 2-43 6-43 5 0 22 30 37 68 16 37 65 150 110 252 115 258 145 342 145 395 0 38 3 45 20 45 11 0 20 5 20 10 0 12-8 12-36-2zM1664 4746c-3-8-4-23-1-33 4-14 5-13 6 5 1 22 3 22 140 22s140 0 144-22c4-16 5-13 4 7l-2 30-143 3c-118 2-143 0-148-12zM2054 4746c-3-8-4-23-1-33 4-14 5-13 6 5 1 22 3 22 135 22 131 0 135-1 139-22 4-16 5-13 4 7l-2 30-138 3c-113 2-138 0-143-12zM2622 4749c-16-6-22-16-21-36l1-28 7 25c8 29 47 38 82 20 25-14 68-104 169-355 117-294 161-395 171-395 12 0 12 67 0 75-5 3-11-2-13-12-2-9-27 44-56 118-110 276-227 541-249 564-27 26-60 35-91 24zM3024 4746c-3-8-4-23-1-33 4-14 5-13 6 5 1 22 3 22 147 22 94 0 143 4 139 10s-64 10-146 10c-112 0-141-3-145-14zM4484 4747c-3-9-4-24-1-34 4-14 5-13 6 5 1 20 6 22 59 22 71 0 102-15 124-60 16-31 18-73 18-403v-367l28-12c46-19 223-20 283-1 70 23 138 87 177 165 33 69 59 185 44 200-6 6-11-13-15-49-12-131-88-249-188-293-64-27-173-35-254-18l-60 13-5 375c-4 337-7 379-23 403-27 41-61 58-126 64-49 5-62 3-67-10zM4810 4742c-19-9-41-29-49-43-13-24-13-29 2-53 10-14 25-26 35-25 13 0 12 3-5 11-46 22-38 76 14 97 15 6 46 15 68 20l40 9-35 1c-19 1-51-7-70-17zM5025 4742c84-26 121-47 171-99 53-54 101-151 119-241 7-37 14-56 14-42 2 41-26 135-58 198-53 106-163 188-263 198-41 4-40 3 17-14zM5495 4750c-4-7 80-10 245-10s249 3 245 10c-4 6-97 10-245 10s-241-4-245-10zM7274 4746c-3-8-4-23-1-33 4-14 5-13 6 5 1 22 2 22 176 22 168 0 175-1 175-20 0-11 5-20 10-20 16 0 11 47-6 54-9 3-92 6-185 6-139 0-171-3-175-14z"/><path d="M7897 4753c-4-3-7-19-7-35 0-26 3-28 40-28 70 0 71-4 68-339l-3-291-155 106c-201 137-286 188-301 178-7-4-9-3-6 3 4 6 0 13-8 17-12 4-15 29-15 138 1 142 8 170 51 194 13 7 19 13 12 14-7 0-25-11-40-24l-28-24-3-426c-3-470-7-440 62-411 20 8 73 22 119 30l82 15-70-4c-62-4-106-15-167-41-17-7-18 9-18 254v262l33-17c39-21 246-152 269-172 9-8 22-11 28-7 6 3 9 2 8-3-4-15 111-94 124-86 6 4 8 2 5-3-4-6 0-16 8-23 17-14 20-76 5-114-5-15-20-28-35-32l-26-6 22-24c22-23 28-24 143-22l121 2-114 3c-79 3-120 8-135 18-11 8-15 15-8 15 6 0 21 9 32 20 18 18 19 35 20 395 0 362 0 375-20 395-12 12-33 20-55 20-28 0-35 4-35 20 0 19 7 20 245 20 157 0 245 4 245 10 0 11-482 14-493 3zM9303 4753c-15-6-18-53-3-53 6 0 10 9 10 20 0 19 7 20 146 20 94 0 143 4 139 10-6 10-268 13-292 3zM1330 4723c33-31 98-174 232-508 85-212 97-239 104-232 2 2-12 42-32 88-19 46-72 174-116 284-109 270-151 359-179 378-37 26-42 20-9-10zM6015 4745c6-2 36-9 68-15 64-13 123-55 130-93 4-21 4-21 6-1 0 12-8 33-19 47-24 30-116 67-163 66-18 0-27-2-22-4z"/><path d="M8415 4745c6-2 36-9 68-15 82-16 127-57 127-114 0-29-6-48-18-59-26-24-38-21-52 13-14 33-70 87-104 99-44 17-89 24-82 12 4-6 16-11 27-11 52 0 142-72 155-126 8-32 29-30 66 6 27 27 30 36 25 71-3 23-15 52-28 65-27 29-118 64-162 63-18 0-27-2-22-4zM298 4698c12-6 26-25 31-42 9-31 9-31 10-4 1 26-30 59-54 57-5 0 0-5 13-11zM459 4691l-24-19-3-364c-2-199 0-373 3-385 8-33 33-53 66-53 19 0 29-5 29-15 0-13-23-15-145-15s-145 2-145 15c0 10 10 15 34 15 38 0 67 22 65 48-1 15-2 14-6-1-5-20-41-37-79-37-19 0-24-5-24-25v-25h320v25c0 22-4 25-34 25-68 0-66-10-66 406v375l25 24c29 29 17 33-16 6zM758 4690c35-22 52-54 52-101 0-19 4-28 11-23 13 8 3 68-17 99-8 12-26 27-40 33-39 18-42 14-6-8zM920 4695c-7-8-14-36-16-63l-3-47 9 50c5 27 17 55 26 62 10 7 13 13 7 13s-16-7-23-15zM1690 4700c8-5 20-24 27-42 13-32 13-32 7-3-6 34-21 55-38 55-6 0-4-5 4-10zM1867 4690c-31-24-43-63-50-150-3-40-2-55 3-40 4 14 8 45 9 68 1 56 23 103 59 124 15 10 22 18 16 18s-23-9-37-20zM2117 4690c40-24 51-45 63-118l9-57-3 69c-2 63-5 71-34 97-18 16-40 29-50 29-11 0-6-7 15-20zM2280 4696c-6-8-10-23-8-34 2-15 6-12 19 14 17 35 11 45-11 20zM3061 4694c7-9 16-34 20-57l6-42 2 46c1 42-11 69-32 69-5 0-4-7 4-16zM3243 4700c-12-5-28-19-36-32-20-31-32-108-18-108 6 0 11 13 11 29 0 47 17 79 52 101 34 21 30 25-9 10zM3898 4703c6-2 18-2 25 0 6 3 1 5-13 5s-19-2-12-5zM4559 4681l31-29v-366c0-353-1-367-20-386-12-12-33-20-55-20-31 0-35-3-35-25v-25l108 2 107 2-102 3c-82 3-103 7-103 18s11 15 38 15c74 0 72-11 72 414v377l-25 24c-13 14-29 25-36 25-6 0 3-13 20-29zM7352 4694c15-8 34-27 42-42 11-20 15-22 16-9 0 23-44 67-67 67-13-1-11-5 9-16zM9355 4691c17-19 18-26 6-54-31-78-61-173-59-185 2-7 21 39 43 103 41 118 41 142 4 153-9 3-7-2 6-17zM9522 4697c-36-20-46-41-130-277-45-124-92-254-105-290s-38-102-55-147c-37-99-61-136-102-153-17-7-29-15-26-17 11-12 76 29 95 60 12 19 68 165 125 323 57 159 117 325 132 368 18 50 41 92 62 113 18 18 31 33 30 33-2-1-13-6-26-13zM3808 4690c-78-23-175-119-206-203-26-71-34-107-23-107 5 0 12 17 16 38 22 120 128 237 245 268 27 8 35 13 20 12-14 0-37-3-52-8zM3970 4692c54-12 139-62 171-102 38-45 77-126 85-179 4-22 11-41 16-41s7 9 3 20c-3 11-8 31-11 45-9 49-59 140-99 180-48 48-103 76-159 81-40 3-40 3-6-4zM5525 4691c22-4 46-10 53-14 9-6 12-96 12-392 0-370-1-385-19-395-11-5-33-10-50-10-26 0-31-4-31-25v-25l163 2 162 2-157 3c-131 3-158 6-158 18 0 10 11 15 33 15 18 0 42 6 53 14 18 14 19 30 19 401s-1 387-19 401c-11 8-38 13-60 13l-41-2 40-6zM4880 4683c-21-8-60-44-60-57 0-5 9 0 21 13 42 45 124 54 194 22 73-33 163-162 166-239 0-9 5-26 10-37 7-15 8-9 4 22-14 111-89 227-170 264-38 18-131 24-165 12z"/><path d="M5755 4679c-22-5-46-17-52-26-16-21-19-363-3-347 5 5 11 86 12 179l3 170 40 8c22 5 54 12 70 17l30 8h-30c-16 0-48-4-70-9zM5954 4681c4-6 17-11 30-11 40 0 114-56 138-105 12-25 27-45 34-45 22 0 64 42 63 63 0 15-2 17-6 7-9-24-35-50-50-50-7 0-16 8-20 18-12 35-55 83-91 101-47 24-107 37-98 22zM8150 4677l-45-12v-185l-1-185 3 176 3 176 26 11c14 7 39 12 57 12s39 5 47 10c21 14-32 12-90-3zM2597 4650c-8-37-95-258-108-276-5-6-42-87-82-181-46-109-76-168-85-165-14 4-16-17-2-38 7-12 12-7 25 22 8 21 62 145 118 275 121 279 150 355 145 380-3 12-6 6-11-17zM1711 4570c1-55 1-55 9-15 4 22 4 47-1 55-5 10-8-5-8-40zM2272 4580c0-19 2-27 5-17 2 9 2 25 0 35-3 9-5 1-5-18zM1309 4563c-18-49-126-303-208-492-44-102-90-194-101-205-18-18-35-21-130-24s-110-2-110 12c0 12 10 16 40 16 52 0 76 24 78 78 1 23-3 42-8 42-6 0-10-20-10-45 0-51-16-65-74-65-32 0-36-3-36-25v-25h106c89 0 112 3 139 20 38 24 43 33 149 285 46 110 105 251 131 313 26 61 48 112 50 112 3 0 59-136 150-369 92-237 128-305 174-337 32-21 46-24 138-24h103v25c0 22-4 25-38 25-60 0-82 22-83 83l-2 52-7-45c-12-64 11-94 74-98 32-2 46-7 46-18s-18-14-90-14c-151 0-168 17-270 273-38 97-70 179-70 182 0 2-13 33-28 67-16 35-43 100-61 146-18 45-35 82-37 82-3 0-9-12-15-27z"/><path d="M2635 4472c-155-379-246-578-275-604-29-27-35-28-130-28-82 0-100 3-100 15 0 11 11 15 38 15 46 0 76 27 69 62-4 22-4 22-6 1-2-30-38-53-83-53-34 0-38-3-38-26v-26l119 4c142 4 152 9 199 121 17 40 54 126 82 192 29 66 81 187 115 269l63 149 17-39c9-21 57-140 106-264 128-321 128-321 156-362 37-54 74-68 187-68 96 0 96 0 96 25 0 22-4 25-38 25-52 0-80 22-85 68l-4 37-1-37c-3-51 25-78 78-78 29 0 40-4 40-15 0-12-17-15-91-15-108 0-145 17-183 83-14 23-79 180-146 349s-125 310-129 313c-5 2-30-48-56-113zM3071 4543c1-43 2-45 9-18 11 44 11 65 0 65-5 0-9-21-9-47zM912 4550c0-19 2-27 5-17 2 9 2 25 0 35-3 9-5 1-5-18zM822 4525c0-16 2-22 5-12 2 9 2 23 0 30-3 6-5-1-5-18zM3182 4530c0-14 2-19 5-12 2 6 2 18 0 25-3 6-5 1-5-13zM2270 4505c0-14 5-25 10-25 6 0 10 11 10 25s-4 25-10 25c-5 0-10-11-10-25zM7006 4486c-18-88-86-149-251-225-159-74-216-120-230-187-5-24-3-22 13 11 28 59 70 90 227 165 116 56 149 77 192 123 34 36 54 66 58 90 5 24 13 37 28 41 33 9 44 7 27-5-11-7-3-9 32-7 25 2 45 0 43-3-6-8 106-29 118-22 6 4 7 1 2-7-6-10-3-12 14-7 13 3 20 3 17-1-4-3 19-16 50-29 32-13 60-21 63-18 28 29-254 119-354 114-39-2-44-5-49-33zM9733 4445c0-44 2-61 4-37 2 23 2 59 0 80-2 20-4 1-4-43zM912 4480c0-19 2-27 5-17 2 9 2 25 0 35-3 9-5 1-5-18zM1700 4475c0-22-2-58-5-80-8-59 3-30 13 37 5 31 5 63 1 70-6 8-9-2-9-27zM2192 4485c0-16 2-22 5-12 2 9 2 23 0 30-3 6-5-1-5-18zM3170 4479c0-11 5-17 10-14 6 3 10 13 10 21s-4 14-10 14c-5 0-10-9-10-21zM820 4466c0-14 5-26 10-26 6 0 10 9 10 19 0 11-4 23-10 26-6 4-10-5-10-19zM3060 4438c0-62 5-60 14 5 5 31 4 47-3 47s-11-22-11-52zM9703 4445c0-22 2-30 4-17 2 12 2 30 0 40-3 9-5-1-4-23zM1812 4450c0-14 2-19 5-12 2 6 2 18 0 25-3 6-5 1-5-13zM2282 4440c0-19 2-27 5-17 2 9 2 25 0 35-3 9-5 1-5-18zM2192 4425c0-16 2-22 5-12 2 9 2 23 0 30-3 6-5-1-5-18zM3172 4430c0-14 2-19 5-12 2 6 2 18 0 25-3 6-5 1-5-13zM922 4410c0-19 2-27 5-17 2 9 2 25 0 35-3 9-5 1-5-18zM832 4400c0-19 2-27 5-17 2 9 2 25 0 35-3 9-5 1-5-18zM1802 4400c0-14 2-19 5-12 2 6 2 18 0 25-3 6-5 1-5-13zM2280 4370c0-16 5-30 10-30 6 0 10 14 10 30 0 17-4 30-10 30-5 0-10-13-10-30zM3160 4378c0-19 2-20 10-8 13 19 13 30 0 30-5 0-10-10-10-22zM2202 4365c0-16 2-22 5-12 2 9 2 23 0 30-3 6-5-1-5-18zM9692 4365c0-16 2-22 5-12 2 9 2 23 0 30-3 6-5-1-5-18z"/><path d="M3050 4360c0-11 5-20 10-20 6 0 10 9 10 20s-4 20-10 20c-5 0-10-9-10-20zM922 4345c0-16 2-22 5-12 2 9 2 23 0 30-3 6-5-1-5-18zM1794 4359c-3-6-1-16 5-22 8-8 11-5 11 11 0 24-5 28-16 11zM3572 4350c0-14 2-19 5-12 2 6 2 18 0 25-3 6-5 1-5-13zM5907 4350c-3-11-20-27-39-35-29-12-30-14-10-15 14 0 36 13 53 31 25 27 31 30 47 18 46-35 57-80 23-99-11-5-81-10-155-10h-136v-148c0-142 1-149 23-170 29-27 133-50 150-33 8 8-1 11-36 11-26 0-63 7-82 14l-35 15v301h135c122 0 137 2 155 20 28 28 25 47-14 86-38 38-71 44-79 14zM8357 4350c41-25 57-54 44-79-16-28-31-31-172-31h-129v-153c0-138 2-156 19-171 24-22 98-35 86-16-5 8 1 7 16-3 13-9 29-17 36-17 20 0 15 20-4 20-10 0-27 7-37 15-24 18-40 19-30 3 4-8 3-10-2-5s-9 14-9 20c0 5-6 12-14 15-9 3-11 0-6-9 5-8 4-11-1-6s-9 14-9 20c0 5-6 12-14 15-9 3-11 0-6-8s4-11-2-7c-7 4-12 60-12 142l-2 135h136c122 0 137 2 155 20 11 11 20 25 20 30 0 24-30 67-55 78-40 18-44 14-8-8zM8976 4348c3-13 23-57 44-98 20-41 54-117 75-167 33-82 55-114 55-83 0 8 98 285 125 353 7 16-4 17-150 17h-156l7-22zm281-1c-3-8-28-81-57-163-28-82-55-153-59-157-5-5-30 43-56 105s-60 139-76 171l-29 57h141c113 0 140-3 136-13zM830 4335c0-14 5-25 10-25 6 0 10 11 10 25s-4 25-10 25c-5 0-10-11-10-25zM4237 4268c-15-239-137-378-331-378-82 0-145 22-200 71-50 44-101 138-112 207-4 23-10 42-15 42-11 0-1-52 23-118 58-156 201-240 360-212 81 15 125 38 175 93 75 81 109 174 112 305 1 45 0 82-2 82s-7-42-10-92zM5210 4329c0-17 4-28 10-24 6 3 10 17 10 31 0 13-4 24-10 24-5 0-10-14-10-31z"/><path d="M8308 4344c-2-10-19-23-38-30-26-9-30-13-13-13 27-1 81 43 65 53-6 3-12-1-14-10zM9717 4302c-8-75-47-189-89-260-55-92-224-259-243-240-3 3 7 13 22 23 51 34 135 119 175 179 49 72 85 158 104 250 20 92 11 96-11 4-66-277-252-465-534-538-41-11-89-20-105-21-30-1-30-1-6-8 21-7-61-6-277 2-22 1-39 6-36 11s-8 7-25 4c-18-3-29 0-25 5 4 6-5 8-20 5s-25-2-22 2c2 3-17 12-42 18-63 17-193 72-193 82 0 4-35 8-77 7-77 0-77 0-23-7 31-4 102-28 160-54 130-58 236-88 317-90 35 0 63-4 63-8 0-5 32-8 70-8 39 0 70 3 70 8 0 4 33 7 74 8h74l-23-30c-30-40-48-110-40-155 10-52 16-57 30-24 10 23 26 34 72 51 119 44 195 123 197 206 1 37 5 47 24 55 42 20 127 88 178 144 50 54 120 176 143 248 19 59 39 179 31 184-4 2-10-22-13-53zm-337-507c0-2-13-11-30-20-16-9-30-20-30-26s6-7 13-3 9 3 4-2-12-9-16-9-47-37-96-82c-48-46-84-83-79-83 18 0 118 74 162 119 37 38 44 41 37 21-23-76-76-128-175-173-36-16-73-36-82-44-16-14-18-14-24 1-16 41 19 132 69 178 24 24 26 28 11 28-11 1 13 11 51 24 39 12 93 34 120 49 50 26 65 31 65 22zm-70-88c0-2-10-12-22-23l-23-19 19 23c18 21 26 27 26 19zm-203-13c-3-3-12-4-19-1-8 3-5 6 6 6 11 1 17-2 13-5zM1692 4330c0-14 2-19 5-12 2 6 2 18 0 25-3 6-5 1-5-13zM3156 4309c-4-23-5-44-2-46 2-2 7 14 11 37s5 43 2 46c-2 3-7-14-11-37zM2202 4300c0-19 2-27 5-17 2 9 2 25 0 35-3 9-5 1-5-18zM2292 4300c0-19 2-27 5-17 2 9 2 25 0 35-3 9-5 1-5-18zM3046 4293c-7-47-8-118-1-111s18 148 12 148c-2 0-7-17-11-37zM5333 4280c0-30 2-43 4-27 2 15 2 39 0 55-2 15-4 2-4-28zM1789 4293c-1-16-3-39-4-53-11-114-13-171-5-140 11 46 24 220 16 220-3 0-7-12-7-27zM932 4280c0-19 2-27 5-17 2 9 2 25 0 35-3 9-5 1-5-18zM3565 4301c-3-5-1-12 5-16 5-3 10 1 10 9 0 18-6 21-15 7zM841 4249c0-30 4-72 9-94 7-30 8-18 5 49-5 98-15 131-14 45zM1683 4250c0-30 2-43 4-27 2 15 2 39 0 55-2 15-4 2-4-28zM3572 4245c0-16 2-22 5-12 2 9 2 23 0 30-3 6-5-1-5-18zM2212 4235c0-16 2-22 5-12 2 9 2 23 0 30-3 6-5-1-5-18zM2291 4243c0-10 4-36 8-58 9-40 9-39 10 18 0 32-3 57-9 57-5 0-10-8-9-17zM3146 4213c-3-21-5-56-5-78 1-26 5-14 10 34 9 79 6 108-5 44zM932 4215c0-16 2-22 5-12 2 9 2 23 0 30-3 6-5-1-5-18zM5321 4193c-2-51-36-149-71-203-55-85-129-133-250-161-41-10-66-18-55-18 34-1 144 28 186 49 54 28 113 89 143 148 33 65 58 156 53 189-4 27-4 27-6-4zM2212 4175c0-16 2-22 5-12 2 9 2 23 0 30-3 6-5-1-5-18zM1673 4140c0-30 2-43 4-27 2 15 2 39 0 55-2 15-4 2-4-28zM942 4155c0-16 2-22 5-12 2 9 2 23 0 30-3 6-5-1-5-18zM3030 4144c0-14 4-23 10-19 6 3 10 15 10 26 0 10-4 19-10 19-5 0-10-12-10-26zM2223 4080c0-36 2-50 4-32 2 17 2 47 0 65-2 17-4 3-4-33zM2306 4093c9-65 14-67 14-5 0 30-4 52-11 52s-8-16-3-47zM942 4095c0-16 2-22 5-12 2 9 2 23 0 30-3 6-5-1-5-18zM850 4085c0-14 5-25 10-25 6 0 10 11 10 25s-4 25-10 25c-5 0-10-11-10-25zM3032 4090c0-14 2-19 5-12 2 6 2 18 0 25-3 6-5 1-5-13zM6951 4071c21-22 29-39 29-66 0-86-60-146-179-177-36-9-56-17-45-17 12-1 51 8 86 19 46 14 74 30 103 59 34 36 39 47 43 98 3 48 0 63-18 86-12 15-28 27-35 27-8 0-1-12 16-29zM3132 4070c0-14 2-19 5-12 2 6 2 18 0 25-3 6-5 1-5-13zM1662 4055c0-16 2-22 5-12 2 9 2 23 0 30-3 6-5-1-5-18zM6135 4037c28-25 38-42 42-72 9-77-24-117-108-135l-44-9 49 4c89 9 122 49 113 138-4 50-32 91-69 100-13 4-8-5 17-26z"/><path d="M6885 4031c-15-88-79-141-172-141-88 0-139 30-175 105-17 34-18 36-13 10 28-129 228-179 321-79 29 31 64 127 51 140-3 3-8-13-12-35zM8496 4021c-3-26-13-57-22-70-19-26-71-51-109-51-14 0-25-5-25-11 0-8 12-9 37-4 80 15 113 48 128 128 9 48 33 46 58-3 24-46 18-112-13-145-14-15-41-27-74-33-28-5-40-10-26-11 86-4 140 43 140 121 0 61-21 103-59 116-29 10-29 10-35-37zM1760 4040c0-11 5-20 10-20 6 0 10 9 10 20s-4 20-10 20c-5 0-10-9-10-20zM862 4025c0-16 2-22 5-12 2 9 2 23 0 30-3 6-5-1-5-18zM3132 4015c0-16 2-22 5-12 2 9 2 23 0 30-3 6-5-1-5-18zM6090 4017c0-64-56-117-125-117-14 0-25-5-25-11 0-30 130 23 145 59 18 43 22 70 14 83-6 10-9 6-9-14zM2232 3985c0-16 2-22 5-12 2 9 2 23 0 30-3 6-5-1-5-18zM7845 3856c77-19 154-66 176-109 11-19 9-18-20 5-37 32-90 48-146 47-35-1-33-3 17-9 68-9 116-35 143-78 24-37 35-40 35-9 0 66-135 168-219 166-34-1-34-1 14-13zM4708 3823c6-2 18-2 25 0 6 3 1 5-13 5s-19-2-12-5zM4758 3823c6-2 18-2 25 0 6 3 1 5-13 5s-19-2-12-5zM5878 3823c23-2 59-2 80 0 20 2 1 4-43 4s-61-2-37-4zM4813 3813c9-2 25-2 35 0 9 3 1 5-18 5s-27-2-17-5zM7670 3761c-47-15-161-64-255-109-190-91-288-122-420-133l-90-8 100 4c115 4 247 41 377 106 146 73 283 130 358 149 45 11 63 19 45 19-16 0-68-12-115-28zM7300 3719c-113-54-260-109-291-109-10 0-19-4-19-10 0-14 9-13 85 11 69 21 335 143 335 153 0 8 11 12-110-45zM4855 3658c-80-89-137-227-134-328 1-37 3-33 10 26 4 39 18 96 29 127 22 57 86 153 132 195l25 23 51-56c65-74 108-162 126-261 13-73 14-75 15-31 2 90-57 220-145 316-20 23-42 41-49 41s-34-23-60-52zM4381 3588c1-24 3-27 6-10 3 14 12 22 24 22 10 0 19 5 19 10 0 6-11 10-25 10-22 0-25-4-24-32zM5405 3610c3-5 15-10 26-10 10 0 19 5 19 10 0 6-12 10-26 10s-23-4-19-10zM4487 3591c99-34 152-89 161-169l5-47-49 39c-27 22-66 55-87 73-42 37-52 41-38 16 12-22 71-79 71-69 0 4 22-11 49-33 27-23 52-41 55-41 13 0 4 88-13 126-22 49-78 97-130 113-61 18-81 11-24-8zM5312 3597c-82-30-142-111-142-192 0-25 3-45 6-45 4 0 28 17 53 37l46 37-37-42c-52-57-49-65 16-60 103 9 182 90 192 199l5 54-18-65c-21-75-50-120-96-149-33-20-117-39-117-27 0 4 32 44 70 88 39 45 68 83 66 86-3 2-42-28-88-68-73-63-83-69-86-51-5 31 16 87 45 122 28 33 65 55 127 74 31 10 35 13 16 13-14 0-40-5-58-11zM6958 3593c7-3 16-2 19 1 4 3-2 6-13 5-11 0-14-3-6-6z"/><path d="M4387 3520c7-43 44-119 70-142 10-10 35-24 56-33 38-16 117-21 117-7 0 13-72 94-78 88-2-3 10-22 29-43 27-31 30-39 16-41-26-5-88 17-125 45-34 26-56 61-78 127-13 39-13 39-7 6zM4910 3475c-5-27-8-138-4-125 3 8 10 24 15 35 6 13 6 35 0 60-5 22-10 36-11 30zM3896 3363c13-56 56-132 96-172 22-23 73-57 112-75 70-34 166-56 166-38 0 5-24 12-54 15-114 11-230 96-281 203-14 29-25 55-25 57 0 3 17-4 38-15 27-14 49-18 82-14 61 7 114 17 119 22 8 8-38 4-88-7-58-12-107-1-136 31-25 28-37 25-29-7zM5921 3383c0-6-21-21-46-33-42-21-50-21-110-10-35 7-70 10-77 7-8-3-5-6 7-7 11-1 29-4 40-6 76-17 116-16 150 5l36 21-6-22c-28-94-131-195-237-231-46-16-64-26-48-26 41-1 161 63 207 110 48 50 97 148 90 181-2 13-5 18-6 11zM4921 3311c-1-47 2-62 10-54s8 27 1 64l-10 54-1-64zM4165 3350c3-5 12-10 20-10s17 5 20 10c4 6-5 10-20 10s-24-4-20-10zM4238 3353c7-3 16-2 19 1 4 3-2 6-13 5-11 0-14-3-6-6zM4284 3352c3-5 21-10 38-10 76-1 215-71 251-126l17-25-72 25c-40 13-97 26-128 29l-55 4 47-8c65-13 157-40 191-58 39-20 44-10 16 32-47 69-150 124-263 140-33 5-47 4-42-3zM5447 3344c-31-7-71-21-89-30-70-36-181-164-120-139 80 34 127 49 187 61l70 14-59-5c-33-3-90-16-127-29l-68-24 15 23c36 55 177 126 252 127 17 0 35 4 38 9 7 12-30 10-99-7zM5578 3353c7-3 16-2 19 1 4 3-2 6-13 5-11 0-14-3-6-6zM5625 3350c3-5 12-10 20-10s17 5 20 10c4 6-5 10-20 10s-24-4-20-10zM4890 3305c0-14 5-25 10-25 6 0 10 11 10 25s-4 25-10 25c-5 0-10-11-10-25zM2870 3310c0-5 16-10 35-10s35 5 35 10c0 6-16 10-35 10s-35-4-35-10zM2998 3313c7-3 16-2 19 1 4 3-2 6-13 5-11 0-14-3-6-6zM3065 3310c3-5 19-10 36-10 16 0 29 5 29 10 0 6-16 10-36 10-21 0-33-4-29-10zM6700 3310c0-5 13-10 29-10 17 0 33 5 36 10 4 6-8 10-29 10-20 0-36-4-36-10zM6818 3313c7-3 16-2 19 1 4 3-2 6-13 5-11 0-14-3-6-6zM6895 3310c3-5 17-10 30-10s27 5 30 10c4 6-8 10-30 10s-34-4-30-10zM2790 3297c0-5 13-7 29-5 17 2 28 1 25-4-3-4 5-8 18-8 41 0 209-49 274-80 34-17 89-50 121-74 71-53 125-81 187-97 74-19 64-3-14 20-44 14-100 42-151 76-44 31-101 66-127 79-54 27-239 86-271 86-11 0-21 4-21 10 0 5-16 9-35 8s-35-6-35-11z"/><path d="M3141 3306c2-3 24-7 49-10 130-15 275-69 362-132 47-35 118-117 118-137 0-6-31-8-80-5-44 3-80 1-80-4 0-4 41-8 90-8 50 0 90 3 90 8 0 18-45 78-93 124-66 63-186 122-303 148-81 18-164 26-153 16zM6531 3289c-105-23-194-65-270-124-56-44-121-121-121-144 0-16 153-13 228 4 73 17 141 50 197 95 85 68 316 160 403 160 13 0 21 4 18 8-2 4 11 6 30 4 21-3 34 0 34 7 0 13-77 15-82 2-1-5-19-12-39-15-55-8-198-55-251-82-26-13-83-48-127-78-47-32-109-64-148-76-76-24-243-39-243-22 0 5 18 32 39 60 46 58 138 122 218 152 65 24 179 53 206 52 9 0 17 3 17 9 0 12-9 11-109-12z"/><path d="M6658 3303c6-2 18-2 25 0 6 3 1 5-13 5s-19-2-12-5zM5090 3272c0-45-56-146-106-192-25-23-42-45-39-48 12-12 102 95 128 150 31 64 43 118 28 118-6 0-11-13-11-28zM4731 3268c-2-39 42-127 90-181 28-31 55-57 60-57s8 26 8 58c-2 52-2 53-8 18-3-22-11-41-17-43-22-7-95 103-120 182-7 22-13 32-13 23zM4892 3240c0-19 2-27 5-17 2 9 2 25 0 35-3 9-5 1-5-18zM4115 3250c3-5 15-10 26-10 10 0 19 5 19 10 0 6-12 10-26 10s-23-4-19-10zM4185 3250c-13-6-15-9-5-9 8-1 25-4 38-7 16-5 22-2 22 10 0 17-23 20-55 6zM4283 3253c9-2 25-2 35 0 9 3 1 5-18 5s-27-2-17-5zM5513 3253c9-2 25-2 35 0 9 3 1 5-18 5s-27-2-17-5zM5595 3249c-11-16-1-20 35-12 29 5 31 7 15 14-29 11-43 10-50-2zM5670 3250c0-5 9-10 19-10 11 0 23 5 26 10 4 6-5 10-19 10s-26-4-26-10zM4275 3231c17-5 77-20 135-34 58-13 123-32 145-42l40-17-65-18c-36-10-83-22-105-26-29-6-34-9-18-12 23-3 163 31 192 48 34 19-178 92-302 105-41 4-46 3-22-4zM4932 3215c0-16 2-22 5-12 2 9 2 23 0 30-3 6-5-1-5-18zM5445 3220c-88-20-181-53-210-74-17-12-13-15 46-35 35-11 87-23 114-26 57-5 45-1-85 33l-75 20 40 17c22 10 87 29 145 42 58 14 119 28 135 33l30 8h-30c-16 0-66-8-110-18zM4880 3181c0-11 5-23 10-26 6-4 10 5 10 19s-4 26-10 26c-5 0-10-9-10-19zM4930 3155c0-14 5-25 10-25 6 0 10 11 10 25s-4 25-10 25c-5 0-10-11-10-25zM2333 3123c9-2 25-2 35 0 9 3 1 5-18 5s-27-2-17-5zM2438 3123c29-2 74-2 100 0s2 3-53 3-76-1-47-3zM2640 3120c46-9 127-13 119-6-2 2-40 6-84 9-60 4-69 3-35-3zM7183 3123c9-2 25-2 35 0 9 3 1 5-18 5s-27-2-17-5zM7298 3123c29-2 74-2 100 0s2 3-53 3-76-1-47-3zM7463 3123c9-2 25-2 35 0 9 3 1 5-18 5s-27-2-17-5zM2258 3113c12-2 30-2 40 0 9 3-1 5-23 4-22 0-30-2-17-4zM4942 3090c0-19 2-27 5-17 2 9 2 25 0 35-3 9-5 1-5-18zM6970 3100c-52-9-170-38-262-63s-210-51-263-58c-52-8-95-17-95-21 0-10 3-10 75 3 33 5 76 12 95 15 19 2 44 8 55 11 25 8 33 10 66 17 14 3 71 20 125 36 93 29 270 65 359 73 35 3 34 4-10 4-27 1-93-7-145-17zM7593 3106c113-21 214-53 285-92 122-68 206-182 219-297l6-52-64 64c-71 71-165 136-252 175-55 24-182 63-236 72-14 3-34 7-43 10-10 3-18 2-18-3 0-4 37-15 83-24 206-41 367-133 501-289l38-45-4 73c-7 91-49 183-118 250-84 83-258 153-412 166-63 6-63 5 15-8zM2112 3090c-109-29-195-74-266-140-70-66-115-150-124-229-6-54 4-53 11 1 7 56 61 162 102 203 83 80 165 122 310 160 50 13 79 24 65 24s-58-9-98-19zM2785 3103c11-2 66-13 122-24 57-11 143-33 192-49 50-16 103-31 118-34s46-10 68-15 58-12 80-14c22-3 57-8 78-12 20-4 37-3 37 2s-43 14-96 22c-52 7-168 32-257 57-169 46-304 75-341 73-20-1-20-2-1-6zM4330 3080c0-5 11-10 25-10s25 5 25 10c0 6-11 10-25 10s-25-4-25-10zM5450 3080c0-5 11-10 25-10s25 5 25 10c0 6-11 10-25 10s-25-4-25-10zM5555 3080c-4-6 5-10 19-10s26 5 26 10c0 6-9 10-19 10-11 0-23-4-26-10zM4693 3025c-40-17-57-48-49-90 18-94 166-82 166 14 0 39-32 81-61 81-9 0-7-5 6-12 49-26 58-69 24-112-24-30-63-34-97-10-16 11-22 25-22 55 0 35 4 42 35 60 19 12 35 23 35 25 0 5 0 5-37-11zM5074 3030c-55-21-70-94-29-135 40-41 105-33 131 17 36 69-31 146-102 118zm62-19c42-26 50-72 18-106-62-67-164 21-106 91 15 19 33 30 52 33 3 1 19-8 36-18zM4015 3009c-112-18-269-54-253-57 10-2 64 6 120 18 124 26 134 27 223 36 39 3 72 8 74 10 7 7-111 2-164-7zM4280 3017c3-3 30-8 60-11 59-6 68-8 115-22l30-8-30-7c-26-6-25-6 8-4 20 2 34-1 31-6s6-9 20-9c87 0-59 58-169 67-38 3-68 3-65 0zM5405 3005c-74-20-105-33-105-45 0-5 17-10 38-9 27 0 32 2 18 8-11 4-15 10-10 13 19 12 91 29 144 34 30 4 57 8 59 10 10 10-99 1-144-11zM5650 3017c3-3 39-8 80-12 81-8 85-8 145-20 22-4 47-9 55-10 8-2 35-8 60-14 72-17 260-26 260-13 0 8-30 12-94 12-61 0-136 9-217 25-116 24-300 45-289 32zM2400 2990c0-5 17-10 38-9 30 0 33 2 17 9-28 12-55 12-55 0zM2575 2990c-15-7-10-9 23-9 26-1 41 3 37 9-7 12-32 12-60 0zM7195 2990c-4-6 9-10 32-10 28 0 34 3 23 10-20 13-47 13-55 0zM7370 2990c-11-7-5-10 23-10 20 0 37 5 37 10 0 13-40 13-60 0z"/><path d="M2317 2983c-1 0-18-4-37-7-57-9-160-41-235-73-92-38-183-101-258-177-33-33-64-60-69-58-4 1-8-7-8-18 0-31 13-24 50 25 107 143 326 260 550 294 81 13 106 23 46 19-21-2-38-4-39-5zM2651 2986c3-3 43-13 90-22 46-8 152-33 234-54 177-47 317-76 400-83 68-7 35 2-90 23-38 6-168 36-289 66-120 30-230 56-245 59-50 11-106 16-100 11zM7116 2983c-1-1-15-4-31-7-51-10-65-13-265-64-107-27-229-55-270-62-41-6-93-16-115-21-35-7-33-7 15-3 86 8 200 32 385 79 94 24 208 51 254 60 89 16 116 26 62 22-18-1-33-3-35-4zM7448 2983c6-2 18-2 25 0 6 3 1 5-13 5s-19-2-12-5zM4188 2958c-20-5-20-6 7-6 17-1 48 3 70 8l40 8-47-1c-26-1-57-5-70-9zM4343 2963c9-2 25-2 35 0 9 3 1 5-18 5s-27-2-17-5zM5418 2963c7-3 16-2 19 1 4 3-2 6-13 5-11 0-14-3-6-6zM5499 2959c-16-5-5-7 34-8 31-1 57 1 57 3 0 8-67 11-91 5zM3508 2953c12-2 30-2 40 0 9 3-1 5-23 4-22 0-30-2-17-4zM3575 2950c3-5 40-10 81-10 43 0 74 4 74 10s-34 10-81 10c-51 0-78-4-74-10zM6293 2953c9-2 25-2 35 0 9 3 1 5-18 5s-27-2-17-5zM4045 2926c-97-32-140-55-297-163-146-99-186-120-258-134l-45-8 52 4c73 6 118 28 263 131 148 104 218 141 325 170 44 13 69 23 55 23s-56-10-95-23zM5680 2930c167-36 255-75 388-173 124-91 195-127 265-132l52-4-48 9c-68 12-136 47-252 131-55 39-132 87-171 105-76 35-248 84-293 83-14 0 12-9 59-19zM4850 2894c-32-37-46-64-55-112-3-15 3-6 13 19 20 48 61 109 73 109 4 0 10-12 12-27 3-23 4-21 6 10 0 20-3 37-8 37s-23-16-41-36z"/><path d="M4930 2908c0-16 3-19 9-10 6 10 16 4 39-22 77-88 65-224-30-331l-31-36-29 28c-30 28-59 77-84 142l-14 36 6-35c13-76 95-189 128-177 27 10 85 100 102 156 27 89 7 178-54 244-31 33-42 34-42 5z"/><path d="M4920 2850c0-18 4-29 10-25 6 3 10 15 10 25s-4 22-10 25c-6 4-10-7-10-25zM2828 2843c7-3 16-2 19 1 4 3-2 6-13 5-11 0-14-3-6-6z"/><path d="M2915 2845c6-2 43-13 83-24 39-12 72-26 72-31 0-18-105-81-165-98-67-20-112-21-199-2-33 6-77 9-99 6-37-6-39-6-26 11 31 40 109 89 184 116 40 15 43 17 15 12-54-8-134-51-189-101-28-25-51-49-51-52 0-4 39-8 87-8 49-1 124-3 168-5 45-2 98 2 122 9 44 13 165 89 170 108 4 12-50 37-112 54-36 9-85 13-60 5zM4890 2831c0-11 5-23 10-26 6-4 10 5 10 19s-4 26-10 26c-5 0-10-9-10-19zM6850 2839c-50-14-110-41-110-50 0-4 17-21 38-37 95-75 193-100 314-82 44 7 106 10 139 7 32-3 59-2 59 3 0 13-84 86-131 113-48 27-140 58-173 56-12 0 5-7 38-15 74-18 164-66 207-110l34-35-41 7c-22 3-67 1-99-6-89-18-134-18-200 2-60 17-165 80-165 98 0 5 33 19 73 31 95 28 95 27 72 27-11 0-36-4-55-9zM4255 2829c-152-19-372-96-529-183-110-61-70-51 65 17 131 67 301 128 409 147 36 7 126 15 200 20l135 7h-105c-58 0-136-3-175-8zM5358 2833c29-2 74-2 100 0s2 3-53 3-76-1-47-3zM3464 2821c18-7 17-9-10-28-26-18-51-27-174-62l-35-9 40 3c60 6 132 30 176 59 46 31 50 46 12 45-23 0-25-2-9-8zM4560 2823c88-13 93-15 79-24-8-5-34-9-59-10l-45-1 40-8c38-7 105 12 105 30 0 8-81 21-119 19l-26-2 25-4zM5228 2823c12-2 32-2 45 0 12 2 2 4-23 4s-35-2-22-4zM5575 2819c133-17 311-77 475-160 118-59 129-71 45-50-38 10-88 21-110 24l-40 6 35-11c19-5 73-20 120-33s93-27 103-30c37-15 14 12-41 47-170 109-489 221-619 217-26-1-15-4 32-10zM6332 2818c7-22 69-58 127-75 31-8 62-18 69-20 6-3 12 0 12 6s-9 11-20 11c-25 0-113 33-148 56-25 16-25 18-7 25 17 6 15 8-8 8-19 1-27-3-25-11zM5150 2812c0-20 66-40 105-32l40 8-42 1c-54 1-80 11-61 22 9 6 4 9-14 9-16 0-28-4-28-8zM4922 2785c0-16 2-22 5-12 2 9 2 23 0 30-3 6-5-1-5-18zM4395 2790c3-5 35-10 71-10s64 4 64 10-30 10-71 10c-44 0-68-4-64-10zM5300 2790c0-6 28-10 65-10s65 4 65 10-28 10-65 10-65-4-65-10zM2040 2765c-16-41-42-165-37-179 2-6 10 21 17 59 7 39 19 83 25 99l13 29 32-44c40-55 60-93 76-144 10-33 13-35 13-14 1 34-50 135-93 185l-34 39-12-30z"/><path d="M4275 2780c-64-13-148-45-153-58-3-9 3-10 21-3 14 5 28 7 31 4 3-4 12 1 19 11 8 10 46 24 102 35 51 11 75 19 55 19-19 0-53-4-75-8zM4905 2727c2-38 5-70 8-73 9-9 17 78 8 90-5 6-11 20-14 31s-3-11-2-48zM5458 2783c6-2 18-2 25 0 6 3 1 5-13 5s-19-2-12-5zM5500 2781c0-5 21-12 46-16 79-11 95-24 24-18-36 3-62 3-59-1 3-3 28-8 55-11 86-8 124-14 136-21 6-4 9-1 6 7-8 23-208 81-208 60zM7737 2748c-46-56-85-141-92-199-4-28 1-69 14-114 11-41 20-59 20-44 1 15-5 44-13 66s-13 60-11 84c3 50 48 146 92 198l29 34 19-64c29-95 27-258-2-322-29-62-54-93-105-130-35-27-39-28-29-9 6 12 14 41 16 64l4 43-13-45c-7-25-18-55-24-67-18-33-15-35 26-14 43 22 103 83 125 126 25 50 40 151 34 224-6 71-33 190-47 204-4 5-24-11-43-35zM1383 2764c-13-3-23-12-23-20 0-41 62-114 113-133 56-22 159-1 165 33 5 23-42 82-79 101-31 16-137 27-176 19zm130-15c47-12 75-32 101-71 22-34 16-44-33-59-53-16-104-4-147 33-30 26-64 75-64 92 0 16 88 19 143 5zM8315 2761c-45-11-70-27-99-62-47-55-30-83 57-95 61-9 110 10 151 57 32 38 53 85 42 96-9 9-121 12-151 4zm141-13c9-9-21-60-53-89-37-35-66-49-99-49-42 0-104 22-104 37 0 23 64 83 105 99 38 13 138 15 151 2z"/><path d="M4251 2740c9-5 28-6 45 0 27 8 26 8-16 9-32 0-40-2-29-9zM4369 2739c16-6 28-6 35 1s-1 10-24 9c-33 0-34-1-11-10zM4791 2734c0-11 3-14 6-6 3 7 2 16-1 19-3 4-6-2-5-13zM5405 2745c-5-1-36-8-68-15l-57-11 6-38c4-24 0-60-10-94-18-63-19-67-8-67 12 0 35 115 30 155-3 25 0 36 12 40 22 6 79 16 124 20 21 2 41 6 44 9 5 6-55 7-73 1zM1872 2709c-30-37-97-83-153-105-59-23-162-97-194-139-15-18-35-55-45-82-22-60-36-138-22-129 5 3 12 27 16 54 13 99 97 212 188 255 18 8 59 27 90 41 32 15 78 47 103 71 43 42 45 43 39 17-16-69-65-198-95-249-55-92-154-187-239-228-42-19-82-32-92-29s-18 1-18-5c0-44 174 42 260 129 90 90 172 252 195 388 8 49-1 52-33 11zM4208 2733c7-3 16-2 19 1 4 3-2 6-13 5-11 0-14-3-6-6zM4421 2736c2-2 20-7 40-10 55-8 69-16 69-40 0-17 2-18 10-6 18 27 10 38-34 49s-93 15-85 7zM7920 2722c0-39 44-172 83-252 56-114 153-213 258-263 107-51 113-51 117 0 4 58-13 147-40 202-29 60-111 141-170 169-27 12-69 32-95 44-27 12-70 44-96 70s-50 48-52 48c-3 0-5-8-5-18zm181-129c167-67 251-178 266-350 6-76 5-76-92-30-122 59-223 171-290 323-20 46-55 157-55 176 0 2 23-17 51-43 32-31 75-58 120-76zM3200 2720c20-13 40-13 40 0 0 6-12 10-27 10-22 0-25-2-13-10zM6558 2723c7-3 16-2 19 1 4 3-2 6-13 5-11 0-14-3-6-6zM6590 2720c0-13 20-13 40 0 12 8 9 10-12 10-16 0-28-4-28-10zM3095 2710c18-30 193-91 254-89 31 1 29 2-15 9-48 7-123 31-188 61l-30 14 30 6c25 6 24 7-14 8-27 1-41-3-37-9zM6685 2711c28-6 26-8-40-36-39-16-99-35-135-41-47-9-55-12-30-13 19 0 53 4 75 10 63 17 185 70 185 80 0 5-19 8-42 8-38-1-40-2-13-8zM3877 2639c-32-5-89-16-125-26-37-9-76-17-87-18-28-2-55-15-55-27 0-6 8-7 18-3 57 22 200 57 282 69 52 7 79 14 60 14s-61-4-93-9zM4083 2643c9-2 25-2 35 0 9 3 1 5-18 5s-27-2-17-5zM5624 2635c-38-7-96-20-128-29-62-18-218-85-199-86 6 0 48 16 93 35 95 41 165 60 287 79 48 8 72 14 53 14s-67-6-106-13zM5831 2646c2-2 29-6 59-9 36-4 46-3 30 3-25 8-97 13-89 6zM4160 2633c96-15 188-40 267-74 116-49 146-51 38-3-89 40-251 85-299 83-26-2-27-2-6-6zM4531 2628c-1-27 22-108 31-108 12 0 9 19-12 75-10 28-19 42-19 33zM3398 2613c6-2 18-2 25 0 6 3 1 5-13 5s-19-2-12-5zM6403 2613c9-2 23-2 30 0 6 3-1 5-18 5-16 0-22-2-12-5zM2002 2535c0-16 2-22 5-12 2 9 2 23 0 30-3 6-5-1-5-18zM2181 2524c0-11 3-14 6-6 3 7 2 16-1 19-3 4-6-2-5-13zM3625 2518c-238-65-459-162-608-269-201-143-342-339-372-519l-7-43 38 23c208 124 407 199 634 240 58 10 92 19 77 19-38 1-203-33-308-63-110-32-236-85-334-141-43-25-82-45-86-45-5 0-4 11 1 25s8 25 5 25c-11 0 60 150 101 212 134 201 398 377 733 487 68 23 126 41 130 41 3 0-39-24-94-53-178-95-360-218-477-326-77-70-74-85 3-21 119 99 253 172 484 263 181 71 469 157 482 143 8-8-27-107-65-181-25-48-62-96-117-151-66-67-96-89-175-127-52-26-131-55-175-66s-72-20-62-20c42-2 158 34 246 76 166 79 298 236 347 411 9 34 14 65 10 69-24 24-524-140-707-233-39-19-73-33-76-31-10 11 197 137 350 214 51 25 94 47 96 49 13 12-12 9-74-8zm-375-262c0-1-22-17-50-34-61-38-65-34-7 7 39 28 57 36 57 27zM6120 2535c0-2 53-31 118-64 115-59 333-191 382-231 14-11-22 4-80 34-120 62-256 118-416 169-142 46-323 91-331 83-12-11 17-110 55-186 47-96 178-231 270-279 83-43 181-76 273-91 178-28 291-53 386-85 102-34 266-109 355-162 26-15 49-25 52-22 12 12-28 139-70 221-133 256-447 466-879 588-118 33-115 32-115 25zm-210-40c370-99 688-241 863-387 26-22 47-35 47-30 0 16-130 127-146 126-7-1-12 3-11 9 3 15-233 173-356 237-58 30-104 56-103 58 8 8 262-85 362-132 332-158 548-383 603-627l9-39-42 26c-182 112-418 194-656 229-146 22-241 49-334 97-163 84-310 271-342 436-5 27-9 27 106-3zM2006 2460c13-98 74-189 155-231 22-10 39-18 39-15 0 2-11 28-25 57-23 50-26 48-10-8 9-33-7-28-53 16-48 47-69 84-94 166-17 57-18 57-12 15zM2161 2445c-7-33-11-74-8-90 3-25 4-23 6 11 0 23 6 55 12 72s9 39 7 49-10-9-17-42zM4715 2411c2-5-7-6-22-3-16 3-24 1-20-6 4-5 0-12-8-15-9-4-12-1-8 9 6 17 7 17-96-1-205-36-366-96-512-190-137-88-227-192-308-352-34-69-75-204-69-231 3-9 10 6 16 35 36 160 105 294 210 405 150 158 335 251 624 312 60 12 110 20 113 18 3-3-31-20-75-37-273-112-436-311-485-590-8-48-14-97-14-109 1-11 8 17 16 64 17 106 60 233 104 307 55 93 190 222 284 270s175 77 265 94c122 23 130 27 52 27-39 0-70-3-67-7zM4981 2416c3-3 35-10 73-16 197-31 360-112 486-239 119-120 184-252 209-426 6-43 9-50 10-25 1 46-32 182-60 245-81 184-241 330-442 405-46 17-65 29-62 39 4 10-5 12-40 9-25-2-45 0-45 4 0 5-30 8-67 8-36 0-64-2-62-4z"/><path d="M5210 2397c3-3 19-7 35-10 341-58 599-194 747-395 86-116 152-297 165-447 3-38 8-72 11-75 12-11-9 171-27 243-84 325-344 554-746 656-83 21-194 38-185 28zM4810 2340c0-5 9-10 19-10 11 0 23 5 26 10 4 6-5 10-19 10s-26-4-26-10zM4888 2343c12-2 32-2 45 0 12 2 2 4-23 4s-35-2-22-4zM4965 2340c3-5 15-10 26-10 10 0 19 5 19 10 0 6-12 10-26 10s-23-4-19-10z"/><path d="M4690 2323c-63-17-80-28-80-53 0-10-38-56-83-103-87-87-107-126-107-209 0-37 38-126 63-146 14-12 13-20-10-80-43-112-83-262-83-309 0-38 5-50 34-79 22-22 47-35 74-40 66-10 102-38 102-77 0-29-3-33-27-32-23 0-29-5-31-29-3-27-2-28 27-24 21 3 31 0 31-9 0-18 17-16 24 3 3 9 6 31 6 50 0 27 4 34 19 34 10 0 21-7 25-15 3-8 13-15 23-14 14 0 15 2 3 6-8 3-19 12-23 19-4 8-16 14-27 14-13 0-20 8-22 27-4 34-53 69-111 78-29 5-52 18-74 42-18 19-33 29-33 23 0-23 58-69 96-76 43-7 95-31 106-48 4-6 8-40 8-76 0-37-4-59-8-52-5 7-19 11-33 10-16-2-24 2-24 12s8 14 28 12c26-3 27-1 27 42 0 50-18 69-75 81-94 20-135 59-135 128 0 41 38 177 81 288l31 79-28 33c-52 62-65 122-43 202 8 29 34 62 94 122 78 78 87 84 149 98 36 8 78 17 93 19 16 2 53 7 84 11 95 12 360-37 373-70 6-16 1-17-94-16h-55l73-14c78-14 177-57 185-79 3-8 30-21 59-30 66-19 108-63 113-118 0-10 15-22 15-12 0 64-52 126-122 145-23 6-57 23-77 39-20 15-56 35-81 44s-33 14-17 11c34-7 34 5 2 43-14 17-25 39-25 51 0 16-11 24-52 36-29 9-73 18-98 20-32 4-21-1 40-18 61-16 86-27 88-40 2-9 2-17 0-17s-46 9-98 20c-121 25-293 21-410-11-46-12-50-12-50 6 0 14 73 42 134 50 16 3 31 7 34 10 10 10-53 3-108-12z"/><path d="M4633 2229c-18-5-33-16-33-24 0-7-8-20-18-27s-22-19-26-26c-10-17 8-8 98 49 48 31 56 39 36 38-14 0-40-5-57-10zm16-12c-2-1-12-9-22-16-15-12-17-12-11 3 3 9 13 16 22 16 8 0 13-1 11-3zM5300 2066c0-3 15-13 33-21 21-10 24-14 10-11-13 2-26 0-29-5s-11-9-17-9c-7 0-6 4 3 10 8 5 13 10 10 10-55 7-183 10-178 5 3-4 23-8 42-10 51-5 145-33 188-57l37-21-19-50c-11-28-30-62-44-76l-25-26 48-140c26-77 52-158 58-180l12-40-5 42c-5 47-37 152-76 249l-25 60 29 34 28 34v-32c0-55 38-135 100-212 73-90 90-107 90-95 0 6-27 41-61 80-33 38-74 98-91 132-32 65-33 84-12 190 7 39-1 93-19 117-12 16-87 35-87 22zm90-72c20-20 1-17-40 7l-35 20 30-6c17-4 37-13 45-21zM5522 1905c0-16 2-22 5-12 2 9 2 23 0 30-3 6-5-1-5-18zM5516 1847c-13-27 1-123 24-167 19-36 57-71 90-82 8-3-2-8-22-12-27-5-38-12-37-24 0-10 3-12 6-5 2 7 23 18 46 24l42 11-30 15c-72 37-96 80-105 183-4 51-9 69-14 57zM4505 1753c-26-59-82-233-90-278-11-62 7-33 26 43 29 114 79 241 96 244 15 3 15 4 0 16-14 12-18 9-32-25z"/><path d="M5279 1774c-12-16-12-17 3-11 13 5 23-10 48-76 17-45 41-119 52-165 12-45 23-80 25-78 12 12-83 316-106 339-4 4-14 0-22-9zM4575 1760c-4-6 12-10 40-10s44 4 40 10c-3 6-21 10-40 10s-37-4-40-10zM5165 1760c-4-6 12-10 40-10s44 4 40 10c-3 6-21 10-40 10s-37-4-40-10zM4693 1753c15-2 37-2 50 0 12 2 0 4-28 4-27 0-38-2-22-4z"/><path d="M4775 1750c-4-6-57-10-126-10h-119v-25c0-14 5-25 10-25 6 0 10 9 10 20 0 20 7 20 364 20h365l4-22c4-20 4-19 6 5l1 27h-119c-69 0-122 4-126 10s-60 10-135 10-131-4-135-10z"/><path d="M5088 1753c12-2 32-2 45 0 12 2 2 4-23 4s-35-2-22-4zM5080 1690c0-5 16-10 35-10s35 5 35 10c0 6-16 10-35 10s-35-4-35-10zM4560 1677c0-10 8-20 18-24 9-4 31-19 48-33 39-34 134-80 181-87 35-6 59-39 54-73-2-12 0-13 10-2 11 10 11 16 0 34-10 16-10 23-2 26 24 8 9 22-24 22-47 0-134 34-185 73-24 18-52 37-63 44-11 6-24 17-28 25-7 10-9 9-9-5zM5233 1683c15-4 16-7 5-20-11-14-11-15 2-11 8 2 16 12 18 21 3 12-3 17-20 16-18-1-19-2-5-6zM5762 1609c-5-181-69-257-341-410-187-105-271-208-271-332 0-58 32-157 51-157 11 0 12 27 1 32-5 2-1 33 8 71 31 126 99 178 266 203 124 18 175 43 222 105 20 27 37 47 39 45 17-16-68-243-97-261-12-8-13-25-1-25 4 0 38 27 74 61 133 121 210 278 223 454l7 84 27-42c47-75 144-139 185-123 17 6 20 36 4 36-6 0-9-7-5-15 15-39-83 5-139 62-20 20-48 62-63 94l-27 56-1-116c0-99-4-127-26-189-35-98-80-170-157-254-62-67-88-84-57-36 25 38 56 138 61 196 3 30 7 58 11 63 3 5 1 9-3 9-5 0-17-17-28-37-53-100-111-136-248-157-111-17-169-40-215-85-50-50-64-84-72-171-3-37-30 70-29 114 3 49 44 132 92 185 31 33 116 89 227 151 226 125 298 224 287 396l-3 59-2-66zM5018 1653c7-3 16-2 19 1 4 3-2 6-13 5-11 0-14-3-6-6zM5100 1650c-39-7-30-14 35-28l40-9-69-33c-38-18-91-35-117-38-47-4-63-16-36-25 9-3 9-7-1-20-10-12-11-20-3-34 9-13 11-14 10-3-3 32 14 60 40 66 92 20 191 74 191 104 0 11-6 20-14 20s-20 2-28 4c-7 2-29 0-48-4zM4062 1590c0-19 2-27 5-17 2 9 2 25 0 35-3 9-5 1-5-18zM3660 1553c0-55 5-54 14 5 4 26 2 42-4 42-5 0-10-21-10-47zM3880 1498c-30-66-97-139-150-163-46-21-49-19-60 27-8 33-8 33-9-9-1-37 2-43 19-43 52 0 131 53 181 124 20 27 29 33 29 21 0-10 2-16 5-13 6 5 17 108 12 108-2 0-14-24-27-52zM4066 1520c11-62 42-119 92-168 47-46 86-72 272-178 104-60 178-133 220-216 17-35 28-52 24-38-28 111-106 190-281 288-210 119-273 177-314 295-14 38-17 43-13 17zM3650 1456c0-25 5-46 10-46 6 0 10 18 10 39 0 22-4 43-10 46-6 4-10-12-10-39zM4852 1420c4-31 46-48 86-34 18 6 28 18 30 34l3 25-13-25c-11-19-21-25-48-25s-37 6-48 25l-13 25 3-25z"/><path d="M5420 1412c0-29-24-72-41-72-5 0 0 13 12 29 11 16 19 37 16 47-4 16-5 16-6-3-1-30-53-70-100-78-56-9-105-44-109-78-2-19-9-27-22-27-11 0-23-6-27-14-4-7-15-16-23-19-12-4-11-6 3-6 10-1 20 6 23 14 4 8 15 15 25 15 15 0 19-7 19-34 0-19 3-41 6-50 7-19 24-21 24-3 0 9 10 12 31 9 29-4 30-3 27 24-2 24-8 29-30 29-25-1-28 3-28 32 0 27 6 37 33 53 17 11 41 20 51 20 28 0 99 36 112 58 18 28 27 82 15 82-6 0-11-12-11-28zm-54-81c-4-5-30-14-58-21-81-17-98-32-98-86 0-45 0-46 30-39 26 6 30 4 30-15s-4-21-27-16c-17 5-29 3-34-6-5-8-9 14-9 53 0 79 11 92 97 119 69 22 76 23 69 11zM6163 1395c0-22 2-30 4-17 2 12 2 30 0 40-3 9-5-1-4-23zM3890 1389c1-57 33-170 69-245 30-61 62-102 130-173 89-93 134-116 86-43-35 53-72 149-80 207l-7 50 22-35c52-83 106-117 197-124l58-5-53 9c-100 19-172 74-213 164l-19 41v-41c0-66 20-148 55-219l32-66-55 53c-107 104-194 273-207 401-4 44-15 63-15 26zM4740 1205c-16-9-19-14-9-15 8 0 20 5 26 11 7 7 24 8 42 4 26-5 31-11 31-36 0-22-5-29-19-29-11 0-23-4-26-10-8-12-8-12 32-1 20 6 35 6 38 0 4-5 16-9 28-9 21 0 21 1-3 13-50 25-33 77 25 77 51 0 65-9 65-40 0-22-6-31-27-38-25-9-25-11-6-11 12-1 24 3 28 8 3 6 18 6 38 0 40-11 40-11 32 1-3 6-17 10-31 10-20 0-24 5-24 29 0 25 4 29 37 34 21 4 42 2 47-3 6-6 17-10 26-10 8 1 3 8-14 16-22 12-37 14-67 6-23-6-41-6-45-1-7 12-101 12-109 0-3-6-18-6-38 0-41 12-47 11-77-6zM3875 1099c-9-44-15-83-12-85 2-3 10 25 17 61 13 71 20 73 40 10 25-80 103-195 179-266l73-68-43-4c-40-3-38-4 14-5 31-1 57 1 57 6 0 4-27 27-61 52-98 71-188 208-220 334-6 25-15 46-19 46s-15-36-25-81zM5901 1108c-12-40-36-97-53-127-36-62-135-171-184-202-19-11-34-25-34-30s26-8 58-7l57 2-48 3-48 4 38 28c93 68 179 185 219 299 12 35 24 60 27 55 7-11 26-118 30-168 4-39 4-39 5 7 2 49-23 187-36 200-5 5-18-25-31-64z"/><path d="M4690 1152c-16-5-30-22-30-36 0-5 8-2 18 7 21 19 45 21 73 7 11-6 19-7 19-1 0 17-51 32-80 23zM5073 1147c-13-5-23-14-23-19s9-4 19 2c29 15 62 12 77-7 15-20 19-6 5 16-11 17-49 21-78 8zM4407 1010c45-9 117-43 147-69 37-33 66-107 66-171 0-33 4-60 9-60 15 0 51 107 50 148-1 33-2 31-9-14-13-86-24-93-39-23-10 50-21 70-58 110-47 51-128 90-181 88-20-1-16-3 15-9zM4872 953c-42-114-90-181-187-259-143-114-182-162-209-254-23-76-21-93 7-85 59 18 170 81 221 126 31 28 56 48 56 45s-9-20-19-38-22-49-25-68c-5-33-5-33 8 6 8 23 22 54 31 68 17 26 91 76 112 76 12 0-23-91-50-133-9-14-33-38-53-53-29-23-37-25-45-13-7 11-9 9-9-8 0-29 3-29 55 7 50 34 74 66 99 130 10 25 25 53 33 63 9 9 14 20 10 23-10 10-65-7-102-32-20-13-38-24-40-24-3 0 12 21 32 48 65 85 99 182 109 318 4 47 3 88-3 98-8 15-14 7-31-41zm12-138c-39-188-150-330-319-411-89-43-99-43-90-1 20 95 86 180 222 284 76 58 135 133 169 217l19 46 6-36c3-20 0-64-7-99zM4930 998c0-22 89-199 116-231 14-17 58-56 97-87 138-108 185-174 211-292l6-28-50 20c-184 73-319 233-360 428-15 71-19 79-19 45-2-79 73-257 128-307 12-11 21-24 21-29 0-6-12 1-28 16-24 23-98 57-124 57-5 0 0-17 11-37 11-21 28-54 36-73 9-19 23-44 33-55 27-31 92-85 102-85 17 0 10 83-10 129-11 24-15 39-8 34 78-61 124-91 185-120 39-18 77-33 83-33 16 0 3 76-25 136-29 65-77 118-182 202-91 72-148 146-182 238-12 30-21 59-21 64s-4 12-10 15c-5 3-10 0-10-7zm91-457c51-32 79-81 87-150l5-45-39 31c-57 45-69 61-97 131-28 71-22 76 44 33zM3861 974c0-11 3-14 6-6 3 7 2 16-1 19-3 4-6-2-5-13zM3861 944c-1-6 6-33 14-60 22-75 84-125 170-137l40-6-41 13c-97 32-137 68-165 148-9 29-18 48-18 42z"/><path d="M4920 925c0-8 5-15 10-15 6 0 10 7 10 15s-4 15-10 15c-5 0-10-7-10-15zM5946 892c-15-62-68-108-160-137-23-7-33-13-24-14 30-2 124 38 145 62 29 31 55 85 50 105-2 10-6 4-11-16zM4866 428c-33-57-46-94-45-126 1-23 2-21 10 11 14 60 48 119 65 113 10-4 14 2 14 19 0 37-16 30-44-17z"/><path d="M4920 455c0-9 4-14 9-11 5 4 23-22 40-56 40-80 42-159 6-233-26-54-48-85-60-85-19 0-71 90-84 147-9 36-9 36-10 8-1-38 39-123 71-153l25-23 27 32c51 60 61 88 61 180 0 75-3 92-30 144-30 58-55 81-55 50z"/><path d="M4923 370c0-30 2-43 4-27 2 15 2 39 0 55-2 15-4 2-4-28zM4906 242c1-84 4-155 6-158 3-2 9 41 13 97 4 66 3 104-3 108s-12 29-15 56c-2 28-3-19-1-103z"/></g><g fill="#2c2c2c"><path d="M4870 7393c-119-144-126-338-17-498l24-36 7 50c4 28 4 62 0 76-3 14-3 33 1 42 4 10 9 74 10 143 5 238 6 256 14 235 5-11 8-87 7-168 0-82 3-151 8-154s6-31 3-63c-4-31-4-81 0-110l6-52 34 53c18 30 39 71 45 91 6 21 14 35 18 33 3-2 5 10 2 28-2 18 0 27 5 20 4-6 8 16 8 52 0 35-4 61-8 58-5-3-7 1-5 8 3 16-29 103-51 139-28 44-64 90-72 90-4 0-22-17-39-37zM4646 6969c-9-21-23-70-32-109-15-66-15-76 1-141 20-79 70-163 134-222 39-36 59-48 46-27-9 14-14 150-6 150 15 0-8 160-32 220-15 35-23 68-20 73 4 6 1 7-7 2-10-6-12-4-6 11 4 10 4 15 0 11-9-8-47 51-40 62 3 4-1 8-9 8s-21-17-29-38zM5108 6947c-77-132-102-226-86-323 8-46 8-78 0-112-6-26-9-49-7-50 2-2 23 15 48 37 24 22 48 37 52 33 5-4 5-1 0 7-4 7-4 16 1 20 17 12 61 86 69 116 4 17 10 37 12 45 9 32 8 140-1 140-5 0-7 3-4 6 6 6-29 123-41 136-4 5-23-20-43-55zM4034 6913c12-111 67-244 139-337 26-32 44-64 40-70-3-6-3-8 2-4 4 4 38-19 74-50 36-32 120-102 186-154 140-112 170-142 160-159-5-7-4-10 2-6 14 9 47-29 37-44-4-7-3-10 4-5 13 8 94-133 87-152-3-8 0-10 7-6 8 5 9 2 5-10-4-9-3-15 2-12 8 6 71-150 71-177 0-9 2-9 8 0 13 21 5 251-12 338-20 100-79 268-114 322-7 12-10 28-6 35s3 10-1 5c-5-4-25 18-45 48s-63 85-96 122c-32 37-59 70-59 74 0 11-14 23-28 25-7 1-43 24-80 52-79 60-185 124-244 147-24 10-40 21-37 26s-1 6-9 4c-7-3-30 1-50 10-48 20-47 21-43-22zM5716 6929c2-3-23-16-54-29-80-32-227-120-298-176-222-180-346-384-405-669-7-33-11-72-10-87 1-16-2-28-6-28-5 0-8-54-8-119 0-66 3-117 8-114 4 2 7 8 7 14 0 26 74 198 83 192 5-3 7-1 4 5-9 14 3 43 14 36 5-3 6 3 2 12-5 13-3 15 7 9 9-5 11-4 6 3-10 16 12 54 26 46 7-4 8-3 4 4-9 15 5 40 65 112 57 68 195 183 210 174 5-3 8-1 7 4-4 13 60 64 72 57 6-4 9-3 8 2-1 4 42 53 97 108 108 108 166 200 200 320 10 33 23 63 29 67 8 6 7 8-1 8s-11 10-7 29c6 29 5 30-29 28-19-1-33-5-31-8zM7120 6793c-121-76-395-183-481-187-21 0-35-5-32-10s-8-7-25-4c-17 2-29 1-26-4 3-4-1-8-8-8-34 0-209-31-256-45-29-9-58-13-65-9-6 4-9 4-5-1 4-4-15-18-42-31-130-60-251-172-313-292-35-68-71-171-62-180 15-16 395 104 572 180 52 22 98 36 105 32s10-4 6 1c-4 4 30 29 76 55 99 55 134 79 204 138 29 24 55 42 58 39 9-8-150-147-163-142-7 2-12-1-10-7 3-16-234-174-356-237-113-58-97-57 72 2 205 71 384 166 510 271 30 25 58 43 62 41 4-3 12 2 19 10s9 15 5 15 11 21 32 48c91 112 152 224 171 315 5 26 9 47 8 46 0 0-26-16-56-36zM2666 6768c91-313 402-568 872-714 108-33 109-30 8 22-124 64-254 145-366 230-87 66-183 154-168 154 3 0 48-31 99-70 105-79 272-164 459-235 196-74 443-146 456-132 3 3-1 28-11 56-9 28-13 56-9 62 4 7 3 9-3 6-5-3-23 22-39 55-35 75-162 207-246 257-83 48-210 89-337 108-60 9-108 19-106 23s-10 4-27 2c-20-3-29-1-24 6 3 6-1 8-12 5-47-12-345 97-480 176-39 23-73 41-76 41s2-24 10-52z"/><path d="M5484 6388l-19-23 23 19c21 18 27 26 19 26-2 0-12-10-23-22zM1461 6347c-13-13-15-54-2-62 5-3 9-18 9-33s10-54 22-87c32-83 111-165 195-201 35-15 62-31 59-36-3-4 1-5 9-3 16 7 82-36 82-52 0-6 4-15 9-20s6-3 2 5c-14 24 12 12 29-14 9-14 19-24 21-21 2 2-7 42-20 88s-22 88-19 93c4 5 2 6-4 3-5-3-23 22-40 57-62 125-171 229-289 275-38 15-54 17-63 8zM8296 6335c-32-14-63-22-67-19-5 3-8 1-7-4 3-8-103-100-109-94-2 1-2 1 0-1 1-1-14-25-34-52-62-85-120-214-144-320-6-28-4-27 50 24 35 33 61 51 71 47s13-2 8 6-2 9 10 5c9-4 15-3 12 1-3 5 20 19 50 31 97 41 199 155 219 246 10 44 15 155 7 155-4-1-33-12-66-25zM5429 6333c-13-16-12-17 4-4 9 7 17 15 17 17 0 8-8 3-21-13zM2114 6258c-108-99-133-239-78-437l15-53 24 22c31 29 81 124 95 181 9 37 9 57-4 106-20 76-20 143-2 188 20 46 5 44-50-7zM7662 6278c18-35 19-146 1-206-13-43-14-62-5-101 12-52 68-155 100-185 20-17 21-17 31 21 38 135 38 264 1 352-13 29-43 69-71 96-53 49-77 59-57 23zM4488 5996c3-5-2-6-12-3-11 5-15 3-10-5s2-9-10-5c-11 5-15 3-10-5s1-9-12-4c-10 4-15 4-11 0 10-10-41-31-133-55-113-31-472-37-455-9 3 5-4 6-14 3-11-3-45 3-76 12-32 9-59 14-62 11-7-7 187-103 287-141 103-40 181-61 280-75 168-24 455-7 378 23-7 2-70 3-140 2-71-1-128 0-128 4 0 3-22 7-49 7-80 2-242 64-167 64 14 0 26-4 26-8 0-5 16-7 36-5 21 1 41 0 46-3 8-5 144-8 151-3 1 1 15 3 30 5 59 7 97 25 98 47 1 12 3 38 4 57s5 49 10 67c7 31 7 32-28 30-19-1-32-6-29-11zM5266 6003c17-13 26-44 33-112l6-65 47-12c26-6 49-9 52-7 2 3 10 2 16-2 13-8 137-9 160-2 8 3 22 5 30 5s35 3 59 7c65 12 44-9-36-36-37-12-89-23-115-23-26-1-48-4-48-7 0-4-57-5-127-3-71 1-136 0-146-3-28-7-9-23 29-23 19 0 34-3 34-7 0-9 197-8 285 2 145 15 325 73 498 161 49 24 93 41 99 38 7-4 8-2 4 4-3 6 2 15 11 21 25 15 12 13-37-4-131-46-429-57-565-21-94 25-175 57-169 67 3 5-3 6-12 2-10-3-15-2-12 3 4 5-4 10-15 11-12 1-38 5-57 8-19 4-30 3-24-2zM1495 5923c-32-8-81-49-105-88-22-35-19-61 5-51 7 2 16 2 19-1 8-9 58-11 71-4 6 3 15 6 20 7 53 8 125 70 125 107 0 17-98 40-135 30zM8250 5919c-49-15-54-22-36-57 29-56 131-97 201-82 6 1 16 3 24 4 22 2 23 18 2 52-43 70-120 103-191 83z"/><path d="M3270 5894c-30-8-77-26-105-39l-50-24 41-1c22 0 44-3 47-6 4-4 26-8 49-9 75-4 121-16 182-48 79-42 85-60 18-56-28 2-48 1-45-4 2-4-8-7-24-6-15 1-64-6-108-15s-89-13-100-10c-17 4-17 3-5-6s10-11-12-7c-17 2-25 0-21-6s-4-8-20-5c-15 3-25 2-22-2 3-5-224-65-372-98-116-26-413-3-556 43-82 27-167 67-161 76 3 5-1 6-8 4-21-8-134 69-211 144-56 53-68 61-63 41 3-14 8-36 10-50 27-153 157-281 351-343 134-44 464-67 615-45 171 26 258 45 374 79 148 45 337 83 372 76 13-2 24-1 24 4s71 8 158 8c120 0 178-5 247-20 50-11 106-22 125-24 19-3 50-7 69-11 70-12 276-5 349 11 41 9 72 19 69 21-2 2-73 6-158 8-252 7-357 42-569 191-174 123-211 139-335 142-67 2-118-2-155-13zM6305 5901c-49-13-114-49-215-121-110-78-170-110-274-145-118-40-212-56-344-60-68-2-126-6-129-9-3-2 22-10 56-17s61-15 61-19c0-7 229-3 300 5 30 4 108 17 173 31 104 21 139 23 285 20 222-5 310-18 491-72 239-73 398-97 631-97 252 0 432 40 563 123 26 16 53 29 59 27 7-1 12 3 13 8 0 6 17 31 37 56 48 58 77 125 85 192l6 52-64-61c-79-75-173-139-190-128-7 4-10 3-6-3 7-11-95-61-178-87-45-14-68-19-170-41-16-4-100-8-185-10-125-2-175 1-257 17-57 11-101 23-99 27 2 3-8 6-22 7-15 0-106 21-203 47-98 26-225 52-287 59-62 6-112 15-112 19 0 11 50 44 92 62s95 29 153 32c22 2 47 5 55 8 8 4 31 8 50 9 33 3 29 5-50 37-74 30-98 34-190 37-58 2-118 0-135-5z"/><path d="M2657 5807c-2-7-82-14-196-17-2 0 2-6 8-13 6-8 9-17 6-20-3-4-2-5 1-3 3 3 33-13 66-34 129-84 253-97 390-43l38 15-25 20c-14 11-22 24-19 30 4 6 2 8-3 5-6-4-31 5-57 19-50 28-203 58-209 41zM6870 5810c0-3-23-11-51-17-50-12-135-59-159-88-9-11-5-17 25-29 107-45 226-41 330 11 51 26 139 92 132 99-2 3-46 6-97 8-50 2-95 7-99 12-6 9-81 13-81 4zM3564 5518c-2-4-17-7-32-7-33 0-43-2-112-25-56-20-97-43-197-111-69-47-201-99-296-116-50-9-64-15-52-21 19-11 245-16 245-6 0 4 15 7 33 7 119-1 318 70 416 149 55 45 105 112 92 125-11 11-91 15-97 5zM6169 5514c-11-14 32-75 85-122 87-76 283-146 441-157 93-6 243-6 259 1 15 6 2 11-48 21-117 24-231 71-329 138-106 71-218 118-277 117-8 0-22 2-30 5-27 10-91 8-101-3zM3970 5367l25-13 3-197 2-197h-42c-48 0-59 6-76 35-10 18-11 16-12-15v-35l136 3c93 2 140-1 150-9 12-10 14-5 14 30 0 22-4 41-10 41-5 0-10-7-10-15 0-20-32-35-74-35h-36v200c0 199 0 201 23 210 16 6 4 9-48 9-63 1-67-1-45-12zM5860 5367c20-10 26-21 28-55 3-44-1-48-41-33-50 19-128-22-161-86-20-40-21-125-1-164 9-16 13-35 9-42s-4-9 1-5c4 4 21-4 37-17 36-30 68-39 111-31 17 4 41 8 52 9 21 2 35 24 28 44-3 8-13 2-27-14-27-31-84-40-126-18-79 41-78 243 1 299 27 18 71 21 100 6 16-9 19-22 19-75 0-44-5-68-16-79-14-15-12-16 27-16 34 0 40 3 31 12-8 8-12 52-12 133 0 133-5 145-54 145h-31l25-13zM4432 5302c-15-15-51-62-80-105-36-53-58-77-72-77-18 0-20 7-20 61 0 62 14 104 31 94 5-4 9-1 9 4 0 7-24 11-60 11-33 0-60-4-60-10 0-5 6-7 14-4s19-3 25-15c14-25 14-266 1-292-9-16-7-19 15-19 14 0 25 4 25 9 0 4 18 3 39-2 48-13 82-1 107 38 23 34 10 72-33 101l-32 21 35 57c20 31 39 54 44 51 4-3 7 3 6 13 0 9 4 16 11 15 7-2 10 3 7 10-2 7 6 25 20 40 35 38 4 37-32-1zm-100-201c19-3 38-36 38-66 0-39-22-65-55-65-49 0-55 8-55 76v64l33-4c17-2 35-4 39-5zM4499 5277c6-8 7-17 3-21s-1-6 6-4c8 2 21-15 32-42 18-45 18-45-4-58-20-12-20-13 4-6 14 3 32 10 40 15 13 7 13 8-1 9-11 0-21 16-29 45-12 42-11 47 6 60s15 14-25 15c-35 0-41-3-32-13zM4704 5271c14-15 15-24 6-40-6-12-16-21-23-21-9 0-9-2 1-8 9-6 5-30-20-100-18-51-35-92-38-92s-16 30-29 66-25 63-27 61c-4-3 59-183 67-191 2-3 20 40 39 94 18 55 38 96 43 93 6-4 7-1 2 6-9 16 22 99 48 129l20 22h-53c-52 0-53-1-36-19zM4810 5280c0-7 6-10 14-7 31 12 38-19 34-172-3-145-2-151 17-151s20 5 17 135c-5 179-3 185 52 185 77 0 121-55 125-154 4-82-38-143-106-156-38-8-38-8 12-9 41-1 55 4 78 24 46 43 60 81 55 151-7 113-63 156-210 162-64 3-88 1-88-8zM5150 5273c0-14 2-15 9-4 18 28 23-13 23-165v-154h34c31 0 34 2 24 19-13 26-13 267 1 292 6 12 17 18 25 15s14-1 14 4c0 6-29 10-65 10-55 0-65-3-65-17zM5323 5283c10-3 22-16 28-29 12-33 12-260-1-284-8-15-5-18 25-22 18-2 31 0 29 4-5 8 100 150 153 208l23 25 2-130c1-156 1-152 12-162 5-5 6-2 1 6-5 10-3 12 11 7 18-5 19 1 16 122-1 70-3 156-5 191l-2 65-110-137-110-137-3 127c-3 132 2 149 41 137 9-3 17-1 17 5 0 7-27 11-72 10-40-1-65-3-55-6zM8760 5244c-92-24-162-50-240-89-49-25-67-41-32-28 15 6 14 3-3-18-13-16-8-13 18 9 91 77 240 117 442 117 289 0 483-97 629-315 165-248 173-665 16-904-70-107-221-239-251-220-7 4-10 3-6-3 8-12-45-38-138-69-38-13-61-23-50-24 18 0 17-2-7-23-32-26-68-85-68-110 0-10-3-16-7-14-5 3-8-12-8-33 0-38 10-45 36-23 8 6 43 24 79 40 99 45 152 97 175 173 7 20 0 17-37-21-44-45-144-119-162-119-5 0 31 37 79 83 49 45 92 81 96 80 5-2 6 3 3 11-5 13 77 69 103 69 6 0 11 3 10 6s27 33 62 66c104 98 174 215 202 337 7 31 16 55 19 53s3 17 1 42 1 43 5 40c5-3 9 42 9 99s-3 96-8 86c-4-9-5 5-3 32 2 30 1 43-5 35-6-10-9-8-9 10 0 12-14 64-31 115-110 332-371 524-719 530-90 1-133-3-200-20zM8454 5065c-4-8-11-12-17-8-5 3-7 2-4-4 3-5 0-29-7-54-11-37-11-53 1-98 12-47 48-121 58-121 2 0-8 23-22 51-34 64-39 146-13 207 11 23 17 42 14 42-2 0-7-7-10-15zM8160 5030c-49-6-79-20-100-44-11-14-9-15 18-10 17 3 46 1 66-6 30-10 42-8 81 9 44 20 60 41 29 41-8 0-13 3-11 8 6 8-21 9-83 2z"/><path d="M8693 4985c-36-15-49-45-33-75 14-26 30-26 23 0-7 27 14 50 46 50 43 0 64-22 72-76l6-49 2 43c2 83-53 133-116 107zM8269 4951c-22-23-29-39-29-70 0-22 4-42 9-46 11-6 51 32 51 49l9 54c10 50 1 53-40 13zM8786 4813c-6-14-5-15 5-6 7 7 10 15 7 18s-9-2-12-12zM3785 4747c-197-65-315-238-315-461 0-107 15-171 61-256 58-109 154-175 300-205 67-14 83-14 154 0 101 19 174 55 233 114 89 90 132 203 132 351 0 202-91 359-249 434-59 27-78 31-171 33-67 2-120-2-145-10zm235-59c81-25 151-95 193-193 26-60 29-80 33-192 5-147-26-240-109-330-50-55-94-78-175-93-202-36-376 115-387 338-2 35-6 66-9 69s-3 10 1 16 7 36 8 66c5 111 77 233 173 293 71 44 179 54 272 26zM4875 4749c-88-20-123-48-110-88 8-26 52-44 59-25 3 9 11 12 16 9 6-4 9-1 8 6-9 38 127 52 197 20 84-38 165-168 169-268 0-24 4-43 8-43 13 0-1-186-18-236-38-114-114-198-204-227-59-19-237-18-282 1l-28 12v367c0 330-2 372-18 403-22 45-53 60-124 60-53 0-58-2-58-21s4-21 31-15c24 4 35 1 55-19l24-24v-379c0-425 2-412-73-412-25 0-37-5-37-14 0-10 28-15 123-20 154-7 140-6 219-18 115-16 258 22 349 93 186 146 194 548 15 732-51 53-99 79-183 101-67 18-80 18-138 5zM6554 4742c-28-10-63-26-77-35-33-22-74-75-82-108-7-30 15-82 42-97 14-8 21-1 39 45 34 82 111 154 150 139 10-4 12-2 8 5-5 8 19 10 84 7 76-3 96-8 129-30 67-44 100-151 51-161l-23-4 23-2c23-1 23-1 5-32-24-42-73-74-228-149-183-89-245-156-245-265 0-116 88-205 231-234 69-15 168 5 239 46 25 15 47 27 50 27 2 1 5 6 5 11 1 6 6 23 13 38 21 50 15 95-17 127-16 16-26 32-23 35 8 8-12 6-26-4-8-5-11-17-7-32 7-30-18-115-33-112-6 2-9-3-6-11 13-35-100-83-170-72-96 16-156 72-162 153-6 95 37 141 216 226 185 88 248 143 266 235 4 17 11 29 16 26 6-4 6 1 0 12s-17 40-26 65c-21 59-67 106-136 138-74 34-228 41-306 13zM8760 4736c-12-74-2-115 58-241 34-70 59-132 55-138-3-5-2-7 4-4 6 4 38-53 76-132 109-228 129-312 86-357l-21-22 32-17c31-16 35-16 72 1 50 22 72 54 110 157 17 45 42 111 55 147 14 36 47 129 75 207 27 79 54 140 59 137s6 1 3 9c-5 15 40 149 63 184 17 26 47 38 86 34 21-2 27 2 27 18 0 20-5 21-145 21-141 0-145-1-145-21 0-17 4-20 22-16 12 4 28 1 35-5 15-12 18-62 3-53-5 3-8 0-5-7s-10-53-27-103l-33-90-192 3-192 2-30 80c-32 83-41 176-20 197s-2 34-55 32c-44-2-53-5-56-23zm515-383c-27-68-125-345-125-353 0-5-4-10-9-10-13 0-34 57-25 71 5 8 3 9-6 4-10-6-12-4-7 9 4 10 3 15-3 11-6-3-10-1-10 5s-27 68-60 138c-33 71-60 131-60 135s70 7 156 7c145 0 156-1 149-17zM838 4743c-132-3-138-4-138-24 0-17 5-20 22-16 29 8 81-20 74-39-3-8-2-12 3-9 17 10 24-17 27-92 1-41 5-77 8-80 11-11 6-43-6-43-10 0-9-3 1-9 9-6 12-20 9-40-2-17-1-31 3-31 8 0 11-42 13-177 0-40 4-73 9-73 4 0 6-27 5-60-2-33 0-60 4-60 5 0 7-19 6-42-2-54-26-78-78-78-30 0-40-4-40-16 0-14 14-15 113-10 125 5 137 7 134 15-1 3 5 17 13 31 14 27 128 286 212 487 28 67 55 120 60 117 4-3 5 1 3 9-5 12 20 87 29 87 2 0 19-37 37-82 18-46 45-111 61-146 15-34 28-65 28-67 0-3 32-85 70-182 102-256 119-273 270-273 73 0 90 3 90 15 0 11-12 15-44 15-60 0-87 31-79 93 4 23 11 45 17 49 8 5 7 8-1 8-7 0-13 9-13 20s3 20 8 20c4 0 7 24 8 53 1 28 4 86 9 127 4 41 9 86 10 100s3 25 4 25c3 0 5 25 16 155 8 103 27 166 46 154 8-4 9-3 5 4-10 16 25 31 57 25 22-4 27-2 27 16 0 20-4 21-140 21-131 0-140-1-140-19 0-12 7-18 17-17 24 2 42-40 38-88-9-120-17-193-20-206-3-8-7-49-10-90s-11-122-17-180-11-117-11-132-3-25-7-23c-5 3-46 101-93 217-117 291-204 488-227 513-11 12-18 23-16 26 2 2-14 4-37 4h-42l3-46c3-34-5-69-33-140-63-165-158-368-168-362-6 3-7 1-3-6 10-16-3-53-16-45-7 4-8 2-4-4 8-13-52-162-65-162-5 0-10 21-11 48-2 50-3 68-12 174-9 98-16 194-21 268-2 36-7 92-10 125-7 76 9 111 48 107 23-2 27 1 27 23 0 14-1 24-2 23-2-1-65-4-140-5zM5743 4742c-245-2-253-3-253-22 0-16 7-20 38-20 21 0 47-6 58-14 18-14 19-30 19-401s-1-387-19-401c-11-8-35-14-53-14-21 0-33-5-33-13 0-11 51-16 243-22 282-10 318-9 362 5 49 16 69 44 71 100 3 52-17 89-56 110-17 9-19 7-18-24 2-50-20-93-59-117-28-17-53-22-126-24-110-3-174 9-204 37-22 20-23 29-23 170v148h136c74 0 144 5 155 10 34 19 23 64-24 100-16 12-21 10-42-15-22-29-24-29-124-30h-101v163c0 90 4 172 10 182 23 42 271 50 348 11 39-20 82-67 95-103 16-45 72 2 70 58-1 40-42 91-80 100-13 4-21 9-19 13 2 3-10 6-27 6-18 0-45 2-62 5-16 3-144 4-282 2zM8148 4742c-240-2-248-3-248-22 0-16 7-20 35-20 22 0 43-8 55-20 20-20 20-33 20-395-1-360-2-377-20-395-11-11-25-20-32-20-6 0-3-7 8-15 13-10 45-14 99-15 145 0 275-12 268-24-3-6 0-5 8 2 15 14 49 16 49 2 0-6 9-6 23-1 12 4 43 11 68 15 59 9 90 40 96 98 5 48-21 111-48 116-12 2-19-7-24-35-18-96-59-125-180-128-55-1-87 3-104 13-16 10-21 10-16 1 12-18-63-4-86 17-17 15-19 33-19 171v153h135c122 0 137 2 155 20 11 11 20 23 20 28 0 17-33 53-62 68-27 14-30 14-25 1 3-8-3-23-14-33-17-15-38-19-115-19h-94v355l28 12c34 14 222 17 279 5 49-11 115-63 133-107 14-34 30-38 53-12 26 29 22 94-8 122-13 12-22 26-20 30 3 4-1 8-8 7-29-1-48 4-44 11 3 4-9 7-26 7-18 0-45 2-62 5-16 3-141 4-277 2zM240 4719c0-18 4-21 29-16 17 4 36 0 50-9 21-15 21-18 21-404 0-431 2-420-66-420-24 0-34-5-34-15 0-13 23-15 145-15s145 2 145 15c0 10-10 15-27 15-71 1-73 9-73 417 0 373 4 410 43 407 9-1 14 2 11 8-3 5 5 6 20 2 22-5 26-3 26 15 0 20-4 21-145 21s-145-1-145-21zM2060 4719c0-17 4-20 29-14 22 5 35 0 59-20 35-29 39-45 47-170 3-49 8-112 10-140 2-27 6-86 10-130 3-44 7-91 10-105 2-14 7-72 10-129 7-122-2-141-67-141-27 0-38-4-38-15 0-12 18-15 101-15 101 0 101 0 133 33 22 21 53 82 96 184 35 84 67 150 72 147 4-3 5 3 1 12-5 13-3 15 7 9 9-5 11-4 6 4-9 13 133 363 145 356 4-3 62-144 129-313s132-326 146-349c38-66 75-83 183-83 74 0 91 3 91 15 0 11-11 15-40 15-27 0-47 7-61 21-19 19-21 28-14 83 9 76 11 102 13 172 1 30 5 53 10 51 4-3 6 20 5 51-1 38 1 50 6 37 5-12 7 7 4 48-2 38 0 67 6 67 5 0 7 9 4 20s1 28 8 37c10 12 10 14 2 9-9-5-13 0-13 13 0 12 3 21 8 21 4 0 6 17 5 38-3 61 9 113 32 140 18 21 31 26 64 25 35-2 41 1 41 18 0 18-8 19-145 19-141 0-145-1-145-21 0-15 4-19 16-15 9 4 23 1 30-5 18-15 19-99 2-99-10 0-9-3 1-9 9-6 11-18 7-37-8-39-19-152-17-186 1-16-2-28-6-28-5 0-9-26-9-58-2-99-6-147-12-157-4-5-5-40-4-77 2-72-7-85-28-40-48 104-170 419-165 430 2 7 1 11-3 8-5-3-32 52-62 122-62 145-85 175-133 170-31-3-32-4-39-63-7-67-27-121-156-415-49-113-97-223-106-244-18-42-28-41-32 2-2 15-6 63-10 107-5 44-8 110-9 147 0 38-3 68-8 68-4 0-6 32-5 70 2 39 0 70-3 70-11 0-7 204 4 218 5 7 18 10 28 7 14-5 19-1 19 14 0 20-5 21-135 21s-135-1-135-21z"/><path d="M7280 4719c0-19 4-21 39-15 29 4 44 1 61-12l22-18-1-459-1-460-117-57c-141-68-258-108-307-104-20 1-36-1-36-6 0-13-99-9-175 7-167 36-299 148-336 288-7 26-16 47-20 47-10 0 16-83 43-139 34-69 143-173 222-211 138-66 303-78 472-35 62 16 156 53 272 108 326 155 485 182 583 100 28-24 31-25 20-6-24 45-106 94-187 111-58 13-205-6-271-33-68-29-64-59-61 411l3 426 27 23c22 19 35 23 63 18 31-5 35-3 35 16 0 21-3 21-175 21s-175 0-175-21zM6840 4512c0-6-8-13-17-15-16-4-16-5-1-6 18-1 34 16 24 26-3 4-6 1-6-5z"/><path d="M7058 4503c7-3 16-2 19 1 4 3-2 6-13 5-11 0-14-3-6-6zM6623 4425c0-8 4-12 9-9s6 10 3 15c-9 13-12 11-12-6zM6596 4402c-3-5 1-9 9-9s12 4 9 9c-3 4-7 8-9 8s-6-4-9-8zM6529 4343l-34-38 38 34c34 33 42 41 34 41-2 0-19-17-38-37zM6455 4249c-4-6-5-12-2-15 2-3 7 2 10 11 7 17 1 20-8 4zM6407 4131c-4-17-3-21 5-13 5 5 8 16 6 23-3 8-7 3-11-10zM6400 4018c0-45 2-79 5-76 9 9 11 158 3 158-5 0-8-37-8-82zM4862 3644c-92-103-140-230-129-341 6-60 44-150 82-195 14-16 23-34 20-38-9-15 11-20 29-7 13 9 17 28 18 75 0 34 4 62 7 62s5 29 3 65c-1 36 1 65 5 65 5 0 7 26 7 57-2 58 13 124 16 78 1-11 5-49 8-85s6-95 6-132c1-38 4-68 9-68 4 0 6-29 5-65-2-36-1-65 3-65 3 0 20 16 39 35 18 19 36 32 40 30 4-3 7 3 6 13 0 9 5 16 12 14 8-1 11 2 8 7s3 29 14 52c11 24 20 56 20 71 0 14 4 28 8 30 16 6-18 161-49 224-18 35-55 89-83 120l-52 57-52-59zM9088 3693c7-3 16-2 19 1 4 3-2 6-13 5-11 0-14-3-6-6zM8873 3683c15-2 37-2 50 0 12 2 0 4-28 4-27 0-38-2-22-4zM9013 3683c9-2 23-2 30 0 6 3-1 5-18 5-16 0-22-2-12-5zM4413 3602c-27-4-33-33-17-88 27-91 69-139 146-164 76-24 77-10 7 70-107 123-105 128 12 30 88-73 98-74 85-6-7 39-57 101-98 122-43 22-109 40-135 36zM5354 3595c-62-19-99-41-127-74-29-35-50-91-45-122 3-18 13-12 86 51 46 40 85 70 88 68 2-3-27-41-66-86-38-44-70-84-70-88 0-14 86 8 121 31 48 31 75 77 93 155 8 35 14 65 13 66-13 9-60 9-93-1zM3910 3353c0-21 58-117 92-153 24-24 42-48 40-53-1-5 1-6 6-3 4 3 32-6 61-20s77-28 107-31 54-10 54-14c0-5 14-9 30-9 17 0 30 5 30 10 0 6 15 10 33 9 35-1 117 14 187 35 39 11 42 14 25 23-33 18-149 51-237 68-77 16-101 19-152 23-39 4-4 15 52 18 82 4 200-13 282-41 51-17 68-20 60-10-6 8-8 20-4 26 4 7 3 9-3 6-13-8-36 17-25 28 4 5 1 5-6 1s-25 2-42 14c-36 26-135 61-175 62-16 0-34 4-40 7-9 7-72 7-77 1-2-2-19-4-38-5-19-2-48-6-65-9-80-18-120-17-157 2-21 11-38 18-38 15zm250-103c0-5-9-10-19-10-11 0-23 5-26 10-4 6 5 10 19 10s26-4 26-10zM5545 3349c-3-4-20-7-37-7-46-1-144-37-185-68-18-14-37-23-42-20-11 7-33-18-24-27 3-4 0-13-6-21-9-10 7-8 56 9 78 27 202 45 286 41 56-3 90-14 51-18-51-4-75-7-152-23-88-17-204-50-237-68-17-9-14-12 25-23 70-21 152-36 188-35 17 1 32-3 32-9 0-13 47-13 55 0 4 6 18 9 33 8s51 6 79 16c29 10 58 14 64 10 8-4 9-3 5 4s-3 12 3 12c5 0 35 23 66 51 54 50 96 109 110 157l6 22-36-21c-36-21-73-22-160-3-16 3-46 7-65 9-19 1-35 3-35 5 0 6-76 6-80-1zm170-99c-3-5-15-10-26-10-10 0-19 5-19 10 0 6 12 10 26 10s23-4 19-10zM2940 3308c0-6-17-8-40-6-22 2-40 0-40-4 0-5 9-8 21-8 33 0 199-53 193-62-3-4 1-5 9-2 19 7 96-32 196-100 48-33 108-63 148-76 37-11 71-26 75-33 5-7 8-8 8-1s26 9 80 6c49-3 80-1 80 5 0 20-71 102-118 137-107 78-297 138-434 137-26 0-49 3-52 8-7 11-126 11-126-1zM6764 3308c-3-5-32-7-65-6-32 2-59 1-59-3s-10-7-22-7c-44-1-184-43-248-74-36-18-71-32-77-31-7 0-11-3-8-7 7-12-36-40-49-33-6 3-8 3-4-1 4-5-11-31-33-58-21-27-39-55-39-60 0-17 167-2 243 22 39 12 101 44 148 76 103 70 155 96 258 128 86 27 113 34 144 35 9 1 17 5 17 11 0 5-13 7-30 4-16-4-36-2-42 4-16 12-127 12-134 0z"/><path d="M2290 3112c-173-22-305-68-393-135-50-39-63-45-51-24 4 6-2 3-14-7-23-20-30-32-12-21 6 3 10 1 10-4 0-6-4-11-9-11-13 0-80-137-86-175-3-16-8-41-11-55-4-19 8-10 58 41 97 99 259 202 290 183 6-4 8-3 5 3-4 6 1 13 11 16 168 52 202 59 269 61 24 1 43 3 43 6s53 4 117 3c65-1 118-2 118-3s20-3 45-5c55-4 49-3 316-69 288-71 406-93 472-87 18 1 32-2 32-8 0-31-156-97-227-96-18 0-33-4-33-9 0-4-10-6-22-2-13 3-40 3-62-1l-39-6 28-15c83-43 170-64 265-65 124 0 160 15 336 135 77 53 162 107 189 121 67 33 191 70 215 64 10-3 21 0 23 6 2 8 55 12 166 12 146 0 159 1 129 14-82 33-219 44-363 28-94-11-105-12-220-37-55-11-112-19-127-16-16 3-28 1-28-4 0-10-142-14-152-4-4 3-41 7-85 9-87 4-149 12-208 26-22 5-51 12-65 15-14 2-68 18-120 34-258 81-577 113-810 82zM7160 3118c0-5-17-8-38-8-61 0-249-37-356-70-55-16-111-33-125-36-33-7-41-9-66-17-11-3-36-9-55-11-19-3-62-10-95-15-33-6-86-9-117-7-35 2-58-1-58-7 0-12-193-2-260 14-25 6-56 13-70 15s-38 7-55 11c-65 14-196 28-265 28-96 0-243-26-255-45-3-4 46-8 108-8 127-1 240-18 360-57 94-30 203-87 199-105-1-6 2-9 8-5 5 3 44-19 86-49 98-72 166-104 244-117 83-13 192 3 289 44l75 31-35 8c-18 4-46 5-61 2-16-3-28-2-28 3s-14 8-30 7c-66-4-216 58-228 94-3 10 5 13 29 11 70-6 243 26 497 93 85 21 163 41 175 44 12 2 36 7 52 10 17 4 48 8 70 9 22 2 40 4 40 5s53 2 118 3c64 1 117 0 117-3s19-5 43-6c53-1 83-6 179-33 157-44 281-115 387-222l64-64-6 52c-3 29-17 76-31 105-14 28-22 56-19 61 3 6 1 7-4 4-15-9-36 19-27 35 4 7 4 10-1 6-4-4-27 7-49 26-98 79-234 131-406 155-97 14-400 20-400 9zM4693 3010c-28-17-33-25-33-59 0-30 6-44 22-55 58-41 122 3 115 78-3 30-8 40-23 41-10 2-26 5-34 9-8 3-30-3-47-14zM5074 3020c-12-4-24-16-28-25-3-9-10-14-14-11-5 3-6-9-4-27 10-72 81-101 126-52 32 34 24 80-18 106-35 21-33 21-62 9zM4859 2912c-1-4-2-11-3-17 0-5-9-21-18-35-25-36-44-100-42-137 3-47 51-146 88-182l33-32 31 36c36 40 72 106 72 130 0 9 3 14 8 12 4-3 7 19 7 48s-3 51-6 49c-4-2-9 9-12 25-8 40-67 107-78 89-5-7-6-23-3-35s2-27-2-34-8-38-9-68c-3-95-5-115-12-108-4 4-8 38-9 75s-5 74-9 83c-3 10-6 23-4 30 4 36-2 67-16 73-8 3-16 2-16-2z"/><path d="M2810 2838c0-4-8-8-19-8-22 0-147-62-176-88-11-9-26-25-34-35-13-17-11-17 26-11 22 3 66 0 99-6 87-19 132-18 199 2 60 17 165 80 165 98 0 5-27 18-60 28s-58 20-56 23c2 2-29 4-70 5-41 0-74-4-74-8zM6876 2841c2-3-23-13-56-23s-60-23-60-28c0-18 105-81 165-98 66-20 111-20 200-2 32 7 77 9 99 6l41-7-35 36c-37 38-159 105-192 105-11 0-17 3-15 8 3 4-30 7-73 7s-76-2-74-4zM4255 2819c-145-20-333-84-493-170-51-27-99-46-105-43-8 5-9 3-2-4 7-8 30-6 82 8 108 28 205 39 333 35 160-4 255-28 444-110l39-16-8 33c-5 18-9 51-10 73s-3 50-4 62c-1 26-25 35-131 49-50 7-58 7-147 2-35-2-63-7-63-11 0-5-6-7-12-4-7 2-24 0-36-5-17-6-23-5-20 4 7 21 138 60 209 61 37 1 65 5 62 10-2 4 28 7 66 7 39 0 71-4 71-8 0-8 54-6 100 5l25 5-25 10c-35 14-291 19-375 7zM5260 2824c-56-7-83-14-76-21 10-11 116-20 116-11 0 4 29 8 65 8s65-3 65-7c0-5 30-9 68-10 74-2 203-40 210-62 3-8 0-11-6-7-11 7-30 10-137 23-70 8-102 6-205-12-65-11-66-12-62-51 3-20-1-61-8-90-7-30-11-56-9-58 2-3 40 11 84 31 137 61 250 85 405 86s215-5 320-32c97-25 77-9-75 64-132 64-256 108-362 130-75 16-320 28-393 19zM2043 2737c-20-57-36-151-36-204 2-107 57-226 127-274 19-13 32-28 29-33s-1-6 5-2c9 5 9 13 2 27-21 38-23 136-5 208 15 64 16 74 1 123-14 50-82 168-103 181-5 3-14-8-20-26zM7744 2734c-78-98-106-198-78-277 17-47 13-171-6-207-12-23-11-22 28 7 51 37 76 68 105 130 30 64 30 237 1 327l-19 60-31-40zM1388 2753c-10-2-18-7-18-9 0-17 34-66 64-92 45-39 97-50 151-31 33 12 40 19 40 41 1 15-2 26-5 25s-18 10-34 25c-42 38-135 58-198 41zM8305 2746c-41-16-105-76-105-99 0-15 62-37 104-37 33 0 62 14 99 49 32 29 62 80 53 89-13 13-113 11-151-2zM1871 2689c-14-19-28-28-37-25-8 3-13 2-9-3 12-20-142-100-165-86-6 3-9 1-8-7 2-7-5-12-14-12-10 1-16-1-15-5 1-3-19-25-45-49-55-51-95-126-104-194-4-27-11-51-15-54-16-9-10-62 8-68 24-10 150 54 206 104 27 24 70 74 97 111 26 38 51 65 55 61 5-4 5-2 2 5-4 6 2 33 14 59 21 51 61 185 56 191-2 1-14-11-26-28zM7930 2712c0-19 35-130 55-176 67-152 168-264 290-323 97-46 98-46 92 30-15 172-99 283-266 350-45 18-88 45-120 76-28 26-51 45-51 43zM3970 2509c-261-70-481-149-643-231-43-21-83-36-90-32s-9 3-4-1c4-5-23-28-60-53-38-24-92-64-120-89-63-53-71-44-10 13 78 74 118 104 129 98 6-4 8-3 5 3-11 17 183 147 358 240 55 29 97 53 94 53-4 0-62-18-130-41-250-82-485-215-622-352-39-40-75-71-80-69-5 1-6-2-3-7s-12-36-34-69c-36-53-105-202-95-202 3 0 0-11-5-25s-6-25-1-25c4 0 43 20 86 45 155 88 326 148 525 185 58 11 143 27 190 36 93 17 201 58 274 105 26 16 53 26 59 23 7-4 9-4 5 1-4 4 23 40 60 79 70 74 119 156 152 252 29 82 29 81-40 63zM5804 2498c11-59 71-191 107-237 10-13 16-28 12-35-3-6-3-8 2-4 4 4 38-21 74-55 117-110 258-169 481-202 238-35 474-117 656-229l42-26-9 39c-54 243-271 469-597 624-62 29-109 57-105 62 5 4 3 5-3 2-7-4-67 11-134 33-68 22-126 40-129 40s41-25 99-56c140-74 337-206 434-290 92-79 117-120 32-51-32 26-84 63-116 83-33 20-57 41-53 47 3 6 1 7-5 3s-46 11-89 32c-149 75-387 162-593 217-115 30-111 30-106 3zM4657 2396c-4-10-1-13 8-9 8 3 12 9 9 14-7 12-11 11-17-5zM4523 2374c-139-29-264-69-346-110-37-19-73-32-80-28s-9 4-5-1c4-4-18-26-50-47-74-51-153-128-207-200-23-31-46-54-50-50-5 4-5 2-2-5 9-14-37-96-48-86-4 5-5 2-1-5s-2-39-13-72c-38-110-52-193-53-310 0-144 3-152 60-126 54 25 115 89 151 161l31 60-6-55c-4-30-6-64-6-75 1-89 49-242 102-324 22-34 39-65 37-69-1-4 1-7 5-7s34-26 66-58l59-58-34 68c-18 37-32 78-30 90s1 20-3 18c-9-6-20 55-20 110v40l19-41c25-55 76-111 122-134 21-11 80-26 131-34s111-21 133-30c47-20 97-65 88-79-3-6-1-7 5-3 16 10 40-32 55-99l14-60 11 35c21 65 18 113-12 174-38 77-114 151-216 210-186 106-225 132-272 178-68 67-91 122-95 233-12 357 168 635 498 770 44 18 77 35 72 37-4 2-54-6-110-18zM5190 2393c0-4 30-19 67-33 324-122 505-389 507-750 1-102-2-120-23-165-33-67-112-141-207-194-44-24-115-66-159-94-44-27-85-50-92-50s-10-3-8-7c7-11-40-51-50-43-4 5-5 3-2-3 4-7-8-37-26-67-39-63-46-129-23-192 8-22 15-33 16-25 8 87 22 121 72 171 37 37 112 73 134 65 8-3 13-2 10 2-3 5 33 14 79 20 87 11 147 35 179 71 10 11 24 18 30 14 6-3 8-3 4 2-8 9 42 105 55 105 5 0 6-4 3-9-4-5-8-33-11-63-5-58-36-158-61-196-31-48-5-31 57 36 77 84 122 156 157 254 22 62 26 90 26 189l1 116 27-56c15-32 43-74 63-94 56-57 154-101 139-62-4 8-2 15 2 15 22 0 4 226-26 346-95 372-382 598-880 690-14 3-33 7-42 10-10 3-18 2-18-3z"/><path d="M4854 2338c-3-4-19-7-37-8-72 0-187-35-187-55 0-18 4-18 50-6 117 32 289 36 410 11 52-10 96-17 98-15 22 21-120 72-187 67-12-1-28 1-33 4-14 9-109 10-114 2z"/><path d="M4859 2286c-2-2-27-7-55-10-29-3-82-12-119-21-63-14-71-20-150-98-60-60-86-93-94-122-22-80-9-140 43-202l28-33-23-59c-13-33-26-58-29-56s-5-7-6-18c0-12-13-62-27-111-30-100-33-145-13-185 14-27 63-53 121-66 57-12 75-31 75-81 0-43-1-45-27-42-20 2-28-2-28-12s8-14 24-12c14 1 28-3 33-10 4-7 8 15 8 52 0 36-4 70-8 76-11 17-63 41-106 48-22 4-51 19-67 35-24 25-27 33-23 87 3 55 49 215 89 308 15 35 17 37 34 22 12-11 28-14 54-9 20 3 44 2 54-1 24-10 503-10 526-1 10 4 34 5 54 2 26-5 42-2 54 9 11 10 19 12 24 5 19-31 86-238 82-253-3-10-1-16 4-12 5 3 9-3 10-13 0-10 3-39 5-64 6-65-18-93-105-119-89-26-101-40-101-121 0-38 4-59 9-51 5 9 17 11 34 6 23-5 27-3 27 16s-4 21-30 15c-30-7-30-6-30 39 0 53 17 69 95 86 27 6 55 16 62 21 7 6 17 8 23 4s9-1 8 7c-2 7 3 12 10 10 8-1 11 1 9 5-3 5-2 26 2 48 7 41-6 101-50 232-11 35-17 68-13 75s3 9-1 5c-5-4-17 13-27 39l-19 47 26 27c14 15 34 49 45 77l19 50-37 21c-43 24-137 52-188 57-19 2-39 6-42 10-7 7 131 0 198-9l35-5-32 14c-18 8-33 18-33 21 0 13 75-6 87-22 18-24 26-78 19-117-21-106-20-125 12-190 41-82 146-206 150-178 2 14 14 22 38 27 19 3 37 10 40 15s-2 6-10 3c-23-9-74 32-96 77-23 44-38 152-23 171 7 11 10 87 2 96-1 1-2 5-3 10-16 67-46 99-114 118-29 9-56 22-59 30-8 22-107 65-185 79l-73 14 81-2c76-2 80-1 70 16-13 22-80 41-208 62-96 15-161 19-169 11zm-205-85c-90-57-108-66-98-49 4 7 16 19 26 26s18 20 18 27c0 15 47 33 90 34 20 1 12-7-36-38z"/><path d="M4550 1715c0-18 30-55 46-55 6 0 19-10 30-21 10-12 40-34 66-49 27-14 46-29 44-31s5-5 17-6c106-9 151-23 115-36-10-3-10-7 1-20 7-9 11-24 7-32-4-12 3-15 35-15 34 0 40 3 35 16-4 9-1 23 6 32 10 12 10 16 1 19-27 9-11 21 36 25 26 3 79 20 117 38l69 33-45 9c-92 20-67 34 48 28 49-2 87 19 55 31-13 6-10 8 15 8 25 1 32 5 32 21 0 20-7 20-365 20-317 0-365-2-365-15zm600-25c0-5-16-10-35-10s-35 5-35 10c0 6 16 10 35 10s35-4 35-10zm-113-36c-3-3-12-4-19-1-8 3-5 6 6 6 11 1 17-2 13-5zM4860 1427c0-21 22-37 50-37s50 16 50 37c0 9-16 13-50 13s-50-4-50-13zM4630 1171c0-52 23-79 35-40 4 10 12 19 18 20 7 0 21 2 33 4 12 3 30-4 42-15 12-12 23-16 27-10 3 6 15 10 26 10 14 0 19 7 19 29 0 25-5 31-31 36-18 4-35 3-42-4-17-17-77-14-83 4-4 8-15 15-25 15-16 0-19-8-19-49zM5146 1205c-6-17-66-21-82-5-5 5-26 7-47 3-33-5-37-9-37-34 0-24 4-29 23-29 13 0 28-5 35-12 8-8 12-8 12-1 0 11 21 22 57 29 21 4 47-14 55-38 10-28 28 7 28 53 0 41-3 49-19 49-10 0-21-7-25-15zM4860 1195c-32-38 23-83 79-64 25 9 31 17 31 39 0 16-7 30-16 34-29 11-81 6-94-9zM3879 1073c-7-37-12-86-10-108s4-52 5-67c0-14 3-25 5-23 2 3 13-10 25-27 43-64 138-106 221-100l46 4-73 68c-75 70-153 185-178 265-20 63-27 61-41-12zM5916 1108c-13-66-79-179-146-251-37-40-80-79-96-87l-27-15 49-5c80-8 171 25 217 79 13 16 26 28 28 26s5 11 5 28c1 17 6 33 11 34 5 2 6 36 1 84-4 45-5 86-1 92 3 6 1 7-5 3-8-5-12 0-12 13 0 33-17 33-24-1zM4936 908c19-247 157-442 372-527 44-17 51-18 56-5 3 9 1 12-4 9-6-3-10 2-10 13 0 76-74 177-207 282-94 74-116 102-164 204-22 47-42 86-44 86s-2-28 1-62zM4866 904c-34-84-93-159-169-217-136-104-202-189-222-284-9-42 1-42 90 1 131 62 239 177 289 305 26 67 44 165 37 205l-6 36-19-46zM4814 545c-48-29-70-59-89-121-11-38-11-46 2-59 16-16 24-19 21-7-1 4 18 28 43 53 44 46 98 159 75 159-6 0-30-11-52-25zM4971 524c11-25 18-53 14-62-3-9-4-14-1-11s32-19 63-49c54-52 58-54 61-32 2 13-1 41-7 62-7 21-9 43-6 48 4 6 1 9-7 8-7-2-13 5-13 14 0 10-4 18-8 18-4-1-27 11-51 25-61 36-68 32-45-21zM4929 450v-90c0-117-10-282-17-275-4 3-7 81-8 172-1 117-5 168-13 171-6 2-23-22-38-54-42-92-32-179 30-271 25-38 34-40 54-15 62 76 81 197 43 280-19 42-49 91-51 82z"/></g></svg>